<svg width="1246" height="226" viewBox="0 0 1246 226" fill="none" xmlns="http://www.w3.org/2000/svg">
<path d="M760.33 199H759.123L754.799 192.303C754.689 192.135 754.599 191.959 754.529 191.775H754.494C754.525 191.955 754.541 192.34 754.541 192.93V199H753.556V190.598H754.834L759.041 197.189C759.217 197.463 759.33 197.65 759.381 197.752H759.404C759.365 197.51 759.346 197.098 759.346 196.516V190.598H760.33V199ZM764.912 199.141C764.025 199.141 763.316 198.861 762.785 198.303C762.258 197.74 761.994 196.996 761.994 196.07C761.994 195.062 762.269 194.275 762.82 193.709C763.371 193.143 764.115 192.859 765.053 192.859C765.947 192.859 766.644 193.135 767.144 193.686C767.648 194.236 767.9 195 767.9 195.977C767.9 196.934 767.629 197.701 767.086 198.279C766.547 198.854 765.822 199.141 764.912 199.141ZM764.982 193.668C764.365 193.668 763.877 193.879 763.517 194.301C763.158 194.719 762.978 195.297 762.978 196.035C762.978 196.746 763.16 197.307 763.523 197.717C763.887 198.127 764.373 198.332 764.982 198.332C765.603 198.332 766.08 198.131 766.412 197.729C766.748 197.326 766.916 196.754 766.916 196.012C766.916 195.262 766.748 194.684 766.412 194.277C766.08 193.871 765.603 193.668 764.982 193.668ZM776.994 193L775.195 199H774.199L772.963 194.705C772.916 194.541 772.885 194.355 772.869 194.148H772.846C772.834 194.289 772.793 194.471 772.722 194.693L771.381 199H770.42L768.603 193H769.611L770.853 197.512C770.892 197.648 770.92 197.828 770.935 198.051H770.982C770.994 197.879 771.029 197.695 771.088 197.5L772.471 193H773.349L774.592 197.523C774.631 197.668 774.66 197.848 774.68 198.062H774.726C774.734 197.91 774.767 197.73 774.826 197.523L776.045 193H776.994ZM778.986 197.664L778.049 200.547H777.363L778.049 197.664H778.986ZM788.01 190.598V196.146H789.088V197.025H788.01V199H787.06V197.025H783.111V196.193C783.478 195.779 783.849 195.338 784.224 194.869C784.599 194.396 784.957 193.918 785.297 193.434C785.64 192.949 785.957 192.467 786.246 191.986C786.539 191.502 786.785 191.039 786.984 190.598H788.01ZM784.195 196.146H787.06V192.033C786.767 192.545 786.49 193.002 786.228 193.404C785.967 193.807 785.717 194.172 785.478 194.5C785.244 194.828 785.019 195.125 784.805 195.391C784.59 195.656 784.387 195.908 784.195 196.146ZM790.805 194.172C790.625 194.172 790.471 194.107 790.342 193.979C790.217 193.85 790.154 193.695 790.154 193.516C790.154 193.336 790.217 193.184 790.342 193.059C790.471 192.934 790.625 192.871 790.805 192.871C790.988 192.871 791.144 192.934 791.273 193.059C791.402 193.184 791.467 193.336 791.467 193.516C791.467 193.695 791.402 193.85 791.273 193.979C791.144 194.107 790.988 194.172 790.805 194.172ZM790.805 199.129C790.625 199.129 790.471 199.064 790.342 198.936C790.217 198.807 790.154 198.652 790.154 198.473C790.154 198.293 790.217 198.139 790.342 198.01C790.471 197.877 790.625 197.811 790.805 197.811C790.988 197.811 791.144 197.877 791.273 198.01C791.402 198.139 791.467 198.293 791.467 198.473C791.467 198.652 791.402 198.807 791.273 198.936C791.144 199.064 790.988 199.129 790.805 199.129ZM796.342 199H795.381V191.74C795.306 191.814 795.197 191.9 795.053 191.998C794.912 192.092 794.752 192.186 794.572 192.279C794.396 192.373 794.209 192.461 794.01 192.543C793.814 192.625 793.623 192.689 793.435 192.736V191.764C793.646 191.705 793.869 191.627 794.103 191.529C794.342 191.428 794.574 191.316 794.801 191.195C795.031 191.07 795.248 190.941 795.451 190.809C795.654 190.672 795.83 190.539 795.978 190.41H796.342V199ZM803.549 190.598V196.146H804.627V197.025H803.549V199H802.599V197.025H798.65V196.193C799.017 195.779 799.389 195.338 799.764 194.869C800.139 194.396 800.496 193.918 800.836 193.434C801.18 192.949 801.496 192.467 801.785 191.986C802.078 191.502 802.324 191.039 802.523 190.598H803.549ZM799.734 196.146H802.599V192.033C802.306 192.545 802.029 193.002 801.767 193.404C801.506 193.807 801.256 194.172 801.017 194.5C800.783 194.828 800.558 195.125 800.344 195.391C800.129 195.656 799.926 195.908 799.734 196.146ZM807.123 195.824V199H806.139V190.598H808.447C809.346 190.598 810.041 190.816 810.533 191.254C811.029 191.691 811.277 192.309 811.277 193.105C811.277 193.902 811.002 194.555 810.451 195.062C809.904 195.57 809.164 195.824 808.23 195.824H807.123ZM807.123 191.488V194.934H808.154C808.834 194.934 809.351 194.779 809.707 194.471C810.066 194.158 810.246 193.719 810.246 193.152C810.246 192.043 809.59 191.488 808.277 191.488H807.123ZM821.431 199H820.453V193.363C820.453 192.918 820.48 192.373 820.535 191.729H820.512C820.418 192.107 820.334 192.379 820.26 192.543L817.389 199H816.908L814.043 192.59C813.961 192.402 813.877 192.115 813.791 191.729H813.767C813.799 192.064 813.814 192.613 813.814 193.375V199H812.865V190.598H814.166L816.744 196.457C816.943 196.906 817.072 197.242 817.131 197.465H817.166C817.334 197.004 817.469 196.66 817.57 196.434L820.201 190.598H821.431V199Z" fill="#625AFA"/>
<path d="M1178.96 200H1178V192.74C1177.93 192.814 1177.82 192.9 1177.68 192.998C1177.54 193.092 1177.38 193.186 1177.2 193.279C1177.02 193.373 1176.83 193.461 1176.63 193.543C1176.44 193.625 1176.25 193.689 1176.06 193.736V192.764C1176.27 192.705 1176.49 192.627 1176.73 192.529C1176.96 192.428 1177.2 192.316 1177.42 192.195C1177.65 192.07 1177.87 191.941 1178.07 191.809C1178.28 191.672 1178.45 191.539 1178.6 191.41H1178.96V200ZM1185.43 200H1184.47V192.74C1184.4 192.814 1184.29 192.9 1184.14 192.998C1184 193.092 1183.84 193.186 1183.66 193.279C1183.49 193.373 1183.3 193.461 1183.1 193.543C1182.91 193.625 1182.71 193.689 1182.53 193.736V192.764C1182.74 192.705 1182.96 192.627 1183.2 192.529C1183.43 192.428 1183.67 192.316 1183.89 192.195C1184.12 192.07 1184.34 191.941 1184.54 191.809C1184.75 191.672 1184.92 191.539 1185.07 191.41H1185.43V200ZM1188.97 195.172C1188.79 195.172 1188.63 195.107 1188.5 194.979C1188.38 194.85 1188.32 194.695 1188.32 194.516C1188.32 194.336 1188.38 194.184 1188.5 194.059C1188.63 193.934 1188.79 193.871 1188.97 193.871C1189.15 193.871 1189.31 193.934 1189.44 194.059C1189.56 194.184 1189.63 194.336 1189.63 194.516C1189.63 194.695 1189.56 194.85 1189.44 194.979C1189.31 195.107 1189.15 195.172 1188.97 195.172ZM1188.97 200.129C1188.79 200.129 1188.63 200.064 1188.5 199.936C1188.38 199.807 1188.32 199.652 1188.32 199.473C1188.32 199.293 1188.38 199.139 1188.5 199.01C1188.63 198.877 1188.79 198.811 1188.97 198.811C1189.15 198.811 1189.31 198.877 1189.44 199.01C1189.56 199.139 1189.63 199.293 1189.63 199.473C1189.63 199.652 1189.56 199.807 1189.44 199.936C1189.31 200.064 1189.15 200.129 1188.97 200.129ZM1195.94 197.434C1195.94 197.844 1195.87 198.215 1195.73 198.547C1195.59 198.879 1195.39 199.164 1195.12 199.402C1194.87 199.641 1194.55 199.824 1194.19 199.953C1193.82 200.082 1193.41 200.146 1192.96 200.146C1192.18 200.146 1191.6 200.029 1191.22 199.795V198.775C1191.79 199.143 1192.38 199.326 1192.97 199.326C1193.28 199.326 1193.55 199.281 1193.79 199.191C1194.04 199.102 1194.25 198.977 1194.42 198.816C1194.59 198.656 1194.72 198.463 1194.81 198.236C1194.91 198.01 1194.96 197.762 1194.96 197.492C1194.96 196.945 1194.77 196.518 1194.4 196.209C1194.04 195.896 1193.5 195.74 1192.8 195.74C1192.69 195.74 1192.57 195.742 1192.45 195.746C1192.32 195.75 1192.2 195.756 1192.07 195.764C1191.95 195.768 1191.82 195.773 1191.7 195.781C1191.59 195.789 1191.48 195.799 1191.38 195.811L1191.67 191.598H1195.55V192.465H1192.5L1192.33 194.932C1192.46 194.924 1192.59 194.918 1192.73 194.914C1192.87 194.906 1192.99 194.902 1193.1 194.902C1193.55 194.902 1193.95 194.961 1194.3 195.078C1194.65 195.195 1194.95 195.363 1195.19 195.582C1195.44 195.797 1195.62 196.062 1195.75 196.379C1195.88 196.691 1195.94 197.043 1195.94 197.434ZM1202.61 195.295C1202.61 196.064 1202.54 196.75 1202.38 197.352C1202.23 197.949 1202.01 198.457 1201.72 198.875C1201.42 199.289 1201.07 199.605 1200.64 199.824C1200.22 200.039 1199.74 200.146 1199.2 200.146C1198.65 200.146 1198.16 200.049 1197.74 199.854V198.934C1198.2 199.195 1198.7 199.326 1199.23 199.326C1199.61 199.326 1199.94 199.248 1200.24 199.092C1200.54 198.936 1200.79 198.709 1201 198.412C1201.21 198.111 1201.37 197.742 1201.48 197.305C1201.59 196.867 1201.64 196.365 1201.64 195.799H1201.62C1201.26 196.521 1200.63 196.883 1199.74 196.883C1199.38 196.883 1199.05 196.82 1198.75 196.695C1198.45 196.566 1198.19 196.387 1197.97 196.156C1197.75 195.922 1197.58 195.645 1197.46 195.324C1197.34 195.004 1197.28 194.65 1197.28 194.264C1197.28 193.85 1197.35 193.471 1197.48 193.127C1197.62 192.783 1197.8 192.488 1198.04 192.242C1198.29 191.992 1198.57 191.799 1198.9 191.662C1199.23 191.525 1199.59 191.457 1199.98 191.457C1200.4 191.457 1200.78 191.543 1201.1 191.715C1201.43 191.883 1201.71 192.131 1201.93 192.459C1202.15 192.783 1202.32 193.184 1202.44 193.66C1202.55 194.137 1202.61 194.682 1202.61 195.295ZM1201.58 194.434C1201.58 194.109 1201.53 193.814 1201.45 193.549C1201.37 193.283 1201.25 193.057 1201.1 192.869C1200.95 192.678 1200.78 192.531 1200.57 192.43C1200.37 192.324 1200.14 192.271 1199.9 192.271C1199.67 192.271 1199.46 192.318 1199.26 192.412C1199.06 192.502 1198.88 192.631 1198.73 192.799C1198.59 192.963 1198.47 193.16 1198.39 193.391C1198.31 193.617 1198.27 193.865 1198.27 194.135C1198.27 194.432 1198.3 194.697 1198.38 194.932C1198.46 195.166 1198.58 195.365 1198.73 195.529C1198.88 195.689 1199.05 195.812 1199.26 195.898C1199.47 195.984 1199.71 196.027 1199.96 196.027C1200.18 196.027 1200.39 195.986 1200.59 195.904C1200.79 195.818 1200.96 195.705 1201.1 195.564C1201.25 195.42 1201.37 195.252 1201.45 195.061C1201.53 194.865 1201.58 194.656 1201.58 194.434ZM1208.58 196.824V200H1207.59V191.598H1209.9C1210.8 191.598 1211.5 191.816 1211.99 192.254C1212.48 192.691 1212.73 193.309 1212.73 194.105C1212.73 194.902 1212.46 195.555 1211.91 196.062C1211.36 196.57 1210.62 196.824 1209.69 196.824H1208.58ZM1208.58 192.488V195.934H1209.61C1210.29 195.934 1210.81 195.779 1211.16 195.471C1211.52 195.158 1211.7 194.719 1211.7 194.152C1211.7 193.043 1211.04 192.488 1209.73 192.488H1208.58ZM1222.89 200H1221.91V194.363C1221.91 193.918 1221.94 193.373 1221.99 192.729H1221.97C1221.87 193.107 1221.79 193.379 1221.71 193.543L1218.84 200H1218.36L1215.5 193.59C1215.42 193.402 1215.33 193.115 1215.25 192.729H1215.22C1215.25 193.064 1215.27 193.613 1215.27 194.375V200H1214.32V191.598H1215.62L1218.2 197.457C1218.4 197.906 1218.53 198.242 1218.59 198.465H1218.62C1218.79 198.004 1218.92 197.66 1219.03 197.434L1221.66 191.598H1222.89V200Z" fill="#687385"/>
<path d="M4.24219 200H3.28125V192.74C3.20703 192.814 3.09766 192.9 2.95312 192.998C2.8125 193.092 2.65234 193.186 2.47266 193.279C2.29688 193.373 2.10938 193.461 1.91016 193.543C1.71484 193.625 1.52344 193.689 1.33594 193.736V192.764C1.54688 192.705 1.76953 192.627 2.00391 192.529C2.24219 192.428 2.47461 192.316 2.70117 192.195C2.93164 192.07 3.14844 191.941 3.35156 191.809C3.55469 191.672 3.73047 191.539 3.87891 191.41H4.24219V200ZM10.9922 193.801C10.9922 193.543 10.9512 193.318 10.8691 193.127C10.791 192.936 10.6816 192.777 10.541 192.652C10.4043 192.523 10.2422 192.428 10.0547 192.365C9.86719 192.303 9.66406 192.271 9.44531 192.271C9.25781 192.271 9.07422 192.297 8.89453 192.348C8.71484 192.398 8.53906 192.469 8.36719 192.559C8.19922 192.648 8.03516 192.756 7.875 192.881C7.71875 193.006 7.57227 193.145 7.43555 193.297V192.266C7.70508 192.004 8.00586 191.805 8.33789 191.668C8.67383 191.527 9.08203 191.457 9.5625 191.457C9.90625 191.457 10.2246 191.508 10.5176 191.609C10.8105 191.707 11.0645 191.852 11.2793 192.043C11.4941 192.234 11.6621 192.471 11.7832 192.752C11.9082 193.033 11.9707 193.355 11.9707 193.719C11.9707 194.051 11.9316 194.352 11.8535 194.621C11.7793 194.891 11.6641 195.145 11.5078 195.383C11.3555 195.621 11.1621 195.85 10.9277 196.068C10.6934 196.287 10.418 196.51 10.1016 196.736C9.70703 197.018 9.38086 197.258 9.12305 197.457C8.86914 197.656 8.66602 197.844 8.51367 198.02C8.36523 198.191 8.25977 198.365 8.19727 198.541C8.13867 198.713 8.10938 198.912 8.10938 199.139H12.293V200H7.10742V199.584C7.10742 199.225 7.14648 198.908 7.22461 198.635C7.30273 198.361 7.43164 198.102 7.61133 197.855C7.79102 197.609 8.02539 197.363 8.31445 197.117C8.60742 196.871 8.96484 196.594 9.38672 196.285C9.69141 196.066 9.94531 195.857 10.1484 195.658C10.3555 195.459 10.5215 195.26 10.6465 195.061C10.7715 194.861 10.8594 194.66 10.9102 194.457C10.9648 194.25 10.9922 194.031 10.9922 193.801ZM14.2441 195.172C14.0645 195.172 13.9102 195.107 13.7812 194.979C13.6562 194.85 13.5938 194.695 13.5938 194.516C13.5938 194.336 13.6562 194.184 13.7812 194.059C13.9102 193.934 14.0645 193.871 14.2441 193.871C14.4277 193.871 14.584 193.934 14.7129 194.059C14.8418 194.184 14.9062 194.336 14.9062 194.516C14.9062 194.695 14.8418 194.85 14.7129 194.979C14.584 195.107 14.4277 195.172 14.2441 195.172ZM14.2441 200.129C14.0645 200.129 13.9102 200.064 13.7812 199.936C13.6562 199.807 13.5938 199.652 13.5938 199.473C13.5938 199.293 13.6562 199.139 13.7812 199.01C13.9102 198.877 14.0645 198.811 14.2441 198.811C14.4277 198.811 14.584 198.877 14.7129 199.01C14.8418 199.139 14.9062 199.293 14.9062 199.473C14.9062 199.652 14.8418 199.807 14.7129 199.936C14.584 200.064 14.4277 200.129 14.2441 200.129ZM21.5156 195.764C21.5156 196.467 21.4512 197.09 21.3223 197.633C21.1973 198.176 21.0137 198.635 20.7715 199.01C20.5332 199.381 20.2383 199.664 19.8867 199.859C19.5391 200.051 19.1426 200.146 18.6973 200.146C18.2754 200.146 17.8984 200.055 17.5664 199.871C17.2383 199.684 16.9609 199.412 16.7344 199.057C16.5078 198.701 16.3359 198.266 16.2188 197.75C16.1016 197.23 16.043 196.637 16.043 195.969C16.043 195.234 16.1035 194.586 16.2246 194.023C16.3496 193.461 16.5312 192.99 16.7695 192.611C17.0078 192.229 17.3027 191.941 17.6543 191.75C18.0098 191.555 18.416 191.457 18.873 191.457C20.6348 191.457 21.5156 192.893 21.5156 195.764ZM20.5312 195.857C20.5312 193.467 19.9629 192.271 18.8262 192.271C17.627 192.271 17.0273 193.488 17.0273 195.922C17.0273 198.191 17.6152 199.326 18.791 199.326C19.9512 199.326 20.5312 198.17 20.5312 195.857ZM27.9844 195.764C27.9844 196.467 27.9199 197.09 27.791 197.633C27.666 198.176 27.4824 198.635 27.2402 199.01C27.002 199.381 26.707 199.664 26.3555 199.859C26.0078 200.051 25.6113 200.146 25.166 200.146C24.7441 200.146 24.3672 200.055 24.0352 199.871C23.707 199.684 23.4297 199.412 23.2031 199.057C22.9766 198.701 22.8047 198.266 22.6875 197.75C22.5703 197.23 22.5117 196.637 22.5117 195.969C22.5117 195.234 22.5723 194.586 22.6934 194.023C22.8184 193.461 23 192.99 23.2383 192.611C23.4766 192.229 23.7715 191.941 24.123 191.75C24.4785 191.555 24.8848 191.457 25.3418 191.457C27.1035 191.457 27.9844 192.893 27.9844 195.764ZM27 195.857C27 193.467 26.4316 192.271 25.2949 192.271C24.0957 192.271 23.4961 193.488 23.4961 195.922C23.4961 198.191 24.084 199.326 25.2598 199.326C26.4199 199.326 27 198.17 27 195.857ZM39.375 200H38.2852L37.3945 197.645H33.832L32.9941 200H31.8984L35.1211 191.598H36.1406L39.375 200ZM37.0723 196.76L35.7539 193.18C35.7109 193.062 35.668 192.875 35.625 192.617H35.6016C35.5625 192.855 35.5176 193.043 35.4668 193.18L34.1602 196.76H37.0723ZM49.1836 200H48.2051V194.363C48.2051 193.918 48.2324 193.373 48.2871 192.729H48.2637C48.1699 193.107 48.0859 193.379 48.0117 193.543L45.1406 200H44.6602L41.7949 193.59C41.7129 193.402 41.6289 193.115 41.543 192.729H41.5195C41.5508 193.064 41.5664 193.613 41.5664 194.375V200H40.6172V191.598H41.918L44.4961 197.457C44.6953 197.906 44.8242 198.242 44.8828 198.465H44.918C45.0859 198.004 45.2207 197.66 45.3223 197.434L47.9531 191.598H49.1836V200Z" fill="#687385"/>
<path d="M4.8125 56.9375V58.6328H4V57C2.89062 57 1.98958 56.776 1.29688 56.3281V54.9688C1.59896 55.2344 2.01042 55.4583 2.53125 55.6406C3.05729 55.8177 3.54688 55.9062 4 55.9062V51.9062C2.85417 51.3542 2.11198 50.8464 1.77344 50.3828C1.4349 49.9141 1.26562 49.362 1.26562 48.7266C1.26562 47.9714 1.52344 47.3203 2.03906 46.7734C2.55469 46.2214 3.20833 45.8906 4 45.7812V44.375H4.8125V45.75C5.83333 45.7812 6.53906 45.9271 6.92969 46.1875V47.5156C6.39844 47.099 5.69271 46.875 4.8125 46.8438V50.9688C5.89583 51.4844 6.63542 51.9844 7.03125 52.4688C7.43229 52.9479 7.63281 53.4948 7.63281 54.1094C7.63281 54.849 7.38281 55.4714 6.88281 55.9766C6.38802 56.4766 5.69792 56.7969 4.8125 56.9375ZM4 50.5312V46.8906C3.5625 46.9792 3.21615 47.1745 2.96094 47.4766C2.70573 47.7734 2.57812 48.1354 2.57812 48.5625C2.57812 49.0104 2.68229 49.3776 2.89062 49.6641C3.09896 49.9505 3.46875 50.2396 4 50.5312ZM4.8125 52.3125V55.8438C5.81771 55.625 6.32031 55.0833 6.32031 54.2188C6.32031 53.5 5.81771 52.8646 4.8125 52.3125ZM14.4412 57H13.16V47.3203C13.061 47.4193 12.9152 47.5339 12.7225 47.6641C12.535 47.7891 12.3215 47.9141 12.0819 48.0391C11.8475 48.1641 11.5975 48.2812 11.3319 48.3906C11.0715 48.5 10.8162 48.5859 10.5662 48.6484V47.3516C10.8475 47.2734 11.1444 47.1693 11.4569 47.0391C11.7746 46.9036 12.0845 46.7552 12.3866 46.5938C12.6939 46.4271 12.9829 46.2552 13.2537 46.0781C13.5246 45.8958 13.759 45.7188 13.9569 45.5469H14.4412V57ZM23.6012 48.7344C23.6012 48.3906 23.5466 48.0911 23.4372 47.8359C23.333 47.5807 23.1872 47.3698 22.9997 47.2031C22.8174 47.0312 22.6012 46.9036 22.3512 46.8203C22.1012 46.737 21.8304 46.6953 21.5387 46.6953C21.2887 46.6953 21.044 46.7292 20.8044 46.7969C20.5648 46.8646 20.3304 46.9583 20.1012 47.0781C19.8773 47.1979 19.6585 47.3411 19.445 47.5078C19.2367 47.6745 19.0414 47.8594 18.8591 48.0625V46.6875C19.2184 46.3385 19.6195 46.0729 20.0622 45.8906C20.5101 45.7031 21.0544 45.6094 21.695 45.6094C22.1533 45.6094 22.5778 45.6771 22.9684 45.8125C23.3591 45.9427 23.6976 46.1354 23.9841 46.3906C24.2705 46.6458 24.4945 46.9609 24.6559 47.3359C24.8226 47.7109 24.9059 48.1406 24.9059 48.625C24.9059 49.0677 24.8539 49.4688 24.7497 49.8281C24.6507 50.1875 24.4971 50.526 24.2887 50.8438C24.0856 51.1615 23.8278 51.4661 23.5153 51.7578C23.2028 52.0495 22.8356 52.3464 22.4137 52.6484C21.8877 53.0234 21.4528 53.3438 21.1091 53.6094C20.7705 53.875 20.4997 54.125 20.2966 54.3594C20.0986 54.5885 19.958 54.8203 19.8747 55.0547C19.7966 55.2839 19.7575 55.5495 19.7575 55.8516H25.3356V57H18.4216V56.4453C18.4216 55.9661 18.4736 55.5443 18.5778 55.1797C18.682 54.8151 18.8539 54.4688 19.0934 54.1406C19.333 53.8125 19.6455 53.4844 20.0309 53.1562C20.4216 52.8281 20.8981 52.4583 21.4606 52.0469C21.8669 51.7552 22.2054 51.4766 22.4762 51.2109C22.7523 50.9453 22.9736 50.6797 23.1403 50.4141C23.307 50.1484 23.4242 49.8802 23.4919 49.6094C23.5648 49.3333 23.6012 49.0417 23.6012 48.7344ZM28.8237 55.2188L27.5737 59.0625H26.6597L27.5737 55.2188H28.8237ZM35.64 57H34.3587V47.3203C34.2598 47.4193 34.114 47.5339 33.9212 47.6641C33.7337 47.7891 33.5202 47.9141 33.2806 48.0391C33.0462 48.1641 32.7962 48.2812 32.5306 48.3906C32.2702 48.5 32.015 48.5859 31.765 48.6484V47.3516C32.0462 47.2734 32.3431 47.1693 32.6556 47.0391C32.9733 46.9036 33.2832 46.7552 33.5853 46.5938C33.8926 46.4271 34.1817 46.2552 34.4525 46.0781C34.7233 45.8958 34.9577 45.7188 35.1556 45.5469H35.64V57ZM46.6125 50.7266C46.6125 51.7526 46.5109 52.6667 46.3078 53.4688C46.1047 54.2656 45.8078 54.9427 45.4172 55.5C45.0266 56.0521 44.55 56.474 43.9875 56.7656C43.425 57.0521 42.7844 57.1953 42.0656 57.1953C41.326 57.1953 40.675 57.0651 40.1125 56.8047V55.5781C40.7323 55.9271 41.3937 56.1016 42.0969 56.1016C42.6021 56.1016 43.0526 55.9974 43.4484 55.7891C43.8495 55.5807 44.188 55.2786 44.4641 54.8828C44.7401 54.4818 44.951 53.9896 45.0969 53.4062C45.2427 52.8229 45.3156 52.1536 45.3156 51.3984H45.2844C44.8052 52.362 43.9719 52.8438 42.7844 52.8438C42.3052 52.8438 41.8651 52.7604 41.4641 52.5938C41.063 52.4219 40.7167 52.1823 40.425 51.875C40.1333 51.5625 39.9068 51.1927 39.7453 50.7656C39.5839 50.3385 39.5031 49.8672 39.5031 49.3516C39.5031 48.7995 39.5917 48.2943 39.7687 47.8359C39.951 47.3776 40.201 46.9844 40.5187 46.6562C40.8417 46.3229 41.2219 46.0651 41.6594 45.8828C42.1021 45.7005 42.5839 45.6094 43.1047 45.6094C43.6672 45.6094 44.1646 45.724 44.5969 45.9531C45.0344 46.1771 45.4016 46.5078 45.6984 46.9453C45.9953 47.3776 46.2219 47.9115 46.3781 48.5469C46.5344 49.1823 46.6125 49.9089 46.6125 50.7266ZM45.2297 49.5781C45.2297 49.1458 45.1724 48.7526 45.0578 48.3984C44.9484 48.0443 44.7948 47.7422 44.5969 47.4922C44.399 47.237 44.162 47.0417 43.8859 46.9062C43.6151 46.7656 43.3182 46.6953 42.9953 46.6953C42.688 46.6953 42.4016 46.7578 42.1359 46.8828C41.8703 47.0026 41.6385 47.1745 41.4406 47.3984C41.2479 47.6172 41.0943 47.8802 40.9797 48.1875C40.8703 48.4896 40.8156 48.8203 40.8156 49.1797C40.8156 49.5755 40.8677 49.9297 40.9719 50.2422C41.0812 50.5547 41.2349 50.8203 41.4328 51.0391C41.6307 51.2526 41.8677 51.4167 42.1437 51.5312C42.425 51.6458 42.7349 51.7031 43.0734 51.7031C43.3703 51.7031 43.649 51.6484 43.9094 51.5391C44.175 51.4245 44.4042 51.2734 44.5969 51.0859C44.7948 50.8932 44.9484 50.6693 45.0578 50.4141C45.1724 50.1536 45.2297 49.875 45.2297 49.5781ZM48.2569 53.875C48.2569 53.5781 48.3037 53.2812 48.3975 52.9844C48.4912 52.6823 48.6241 52.401 48.7959 52.1406C48.973 51.8802 49.1892 51.6432 49.4444 51.4297C49.7048 51.2161 49.9991 51.0469 50.3272 50.9219C49.8428 50.651 49.4574 50.3047 49.1709 49.8828C48.8845 49.4557 48.7412 48.9844 48.7412 48.4688C48.7412 48.0573 48.8194 47.6771 48.9756 47.3281C49.1371 46.9792 49.3584 46.6771 49.6397 46.4219C49.9209 46.1667 50.2543 45.9688 50.6397 45.8281C51.0251 45.6823 51.4418 45.6094 51.8897 45.6094C52.3428 45.6094 52.7621 45.6823 53.1475 45.8281C53.5329 45.974 53.8662 46.1745 54.1475 46.4297C54.4287 46.6849 54.6475 46.987 54.8037 47.3359C54.96 47.6849 55.0381 48.0625 55.0381 48.4688C55.0381 48.9844 54.8949 49.4557 54.6084 49.8828C54.322 50.3047 53.9418 50.651 53.4678 50.9219C53.7907 51.0469 54.0798 51.2161 54.335 51.4297C54.5902 51.6432 54.8037 51.8802 54.9756 52.1406C55.1527 52.401 55.2881 52.6823 55.3819 52.9844C55.4756 53.2812 55.5225 53.5781 55.5225 53.875C55.5225 54.3646 55.434 54.8125 55.2569 55.2188C55.0798 55.625 54.8298 55.974 54.5069 56.2656C54.1892 56.5521 53.8064 56.776 53.3584 56.9375C52.9157 57.099 52.4261 57.1797 51.8897 57.1797C51.3584 57.1797 50.8715 57.099 50.4287 56.9375C49.986 56.776 49.6032 56.5521 49.2803 56.2656C48.9574 55.974 48.7048 55.625 48.5225 55.2188C48.3454 54.8125 48.2569 54.3646 48.2569 53.875ZM49.6475 53.7656C49.6475 54.1146 49.6996 54.4297 49.8037 54.7109C49.9131 54.9922 50.0642 55.2318 50.2569 55.4297C50.4548 55.6276 50.6918 55.7812 50.9678 55.8906C51.2491 55.9948 51.559 56.0469 51.8975 56.0469C52.2256 56.0469 52.5277 55.9922 52.8037 55.8828C53.0798 55.7734 53.3168 55.6198 53.5147 55.4219C53.7178 55.224 53.8741 54.9844 53.9834 54.7031C54.098 54.4219 54.1553 54.1094 54.1553 53.7656C54.1553 53.4531 54.1006 53.1615 53.9912 52.8906C53.8871 52.6146 53.736 52.3724 53.5381 52.1641C53.3402 51.9557 53.1032 51.7917 52.8272 51.6719C52.5511 51.5521 52.2412 51.4922 51.8975 51.4922C51.5746 51.4922 51.2751 51.5495 50.9991 51.6641C50.7282 51.7734 50.4912 51.9297 50.2881 52.1328C50.0902 52.3307 49.934 52.5703 49.8194 52.8516C49.7048 53.1276 49.6475 53.4323 49.6475 53.7656ZM50.0459 48.5703C50.0459 48.8359 50.0928 49.0833 50.1866 49.3125C50.2855 49.5365 50.4183 49.7344 50.585 49.9062C50.7569 50.0729 50.9548 50.2057 51.1787 50.3047C51.4027 50.3984 51.6423 50.4453 51.8975 50.4453C52.1527 50.4453 52.3923 50.3958 52.6162 50.2969C52.8454 50.1979 53.0433 50.0651 53.21 49.8984C53.3767 49.7266 53.5095 49.5286 53.6084 49.3047C53.7074 49.0755 53.7569 48.8307 53.7569 48.5703C53.7569 48.2995 53.7074 48.0495 53.6084 47.8203C53.5147 47.5911 53.3845 47.3932 53.2178 47.2266C53.0511 47.0599 52.8532 46.9297 52.6241 46.8359C52.4001 46.737 52.1579 46.6875 51.8975 46.6875C51.6215 46.6875 51.3689 46.737 51.1397 46.8359C50.9157 46.9349 50.7204 47.0703 50.5537 47.2422C50.3923 47.4089 50.2673 47.6068 50.1787 47.8359C50.0902 48.0651 50.0459 48.3099 50.0459 48.5703ZM58.0809 57.1719C57.8414 57.1719 57.6356 57.0859 57.4637 56.9141C57.2971 56.7422 57.2137 56.5365 57.2137 56.2969C57.2137 56.0573 57.2971 55.8516 57.4637 55.6797C57.6356 55.5026 57.8414 55.4141 58.0809 55.4141C58.3257 55.4141 58.5341 55.5026 58.7059 55.6797C58.8778 55.8516 58.9637 56.0573 58.9637 56.2969C58.9637 56.5365 58.8778 56.7422 58.7059 56.9141C58.5341 57.0859 58.3257 57.1719 58.0809 57.1719ZM67.8581 46.5391C67.6862 46.8359 67.4779 47.2057 67.2331 47.6484C66.9935 48.0911 66.7383 48.5885 66.4675 49.1406C66.1967 49.6927 65.9206 50.2865 65.6394 50.9219C65.3581 51.5573 65.0951 52.2135 64.8503 52.8906C64.6055 53.5677 64.3894 54.2552 64.2019 54.9531C64.0196 55.6458 63.8868 56.3281 63.8034 57H62.4284C62.5222 56.3333 62.6654 55.6536 62.8581 54.9609C63.056 54.263 63.2774 53.5807 63.5222 52.9141C63.7722 52.2422 64.0352 51.5964 64.3112 50.9766C64.5873 50.3568 64.8555 49.7865 65.1159 49.2656C65.3764 48.7448 65.6133 48.2865 65.8269 47.8906C66.0456 47.4896 66.2201 47.1771 66.3503 46.9531H60.7331V45.7969H67.8581V46.5391ZM74.7838 48.7344C74.7838 48.3906 74.7291 48.0911 74.6197 47.8359C74.5155 47.5807 74.3697 47.3698 74.1822 47.2031C73.9999 47.0312 73.7838 46.9036 73.5338 46.8203C73.2838 46.737 73.0129 46.6953 72.7213 46.6953C72.4713 46.6953 72.2265 46.7292 71.9869 46.7969C71.7473 46.8646 71.5129 46.9583 71.2838 47.0781C71.0598 47.1979 70.841 47.3411 70.6275 47.5078C70.4192 47.6745 70.2239 47.8594 70.0416 48.0625V46.6875C70.4009 46.3385 70.802 46.0729 71.2447 45.8906C71.6926 45.7031 72.2369 45.6094 72.8775 45.6094C73.3358 45.6094 73.7603 45.6771 74.1509 45.8125C74.5416 45.9427 74.8801 46.1354 75.1666 46.3906C75.453 46.6458 75.677 46.9609 75.8384 47.3359C76.0051 47.7109 76.0884 48.1406 76.0884 48.625C76.0884 49.0677 76.0364 49.4688 75.9322 49.8281C75.8332 50.1875 75.6796 50.526 75.4713 50.8438C75.2681 51.1615 75.0103 51.4661 74.6978 51.7578C74.3853 52.0495 74.0181 52.3464 73.5963 52.6484C73.0702 53.0234 72.6353 53.3438 72.2916 53.6094C71.953 53.875 71.6822 54.125 71.4791 54.3594C71.2811 54.5885 71.1405 54.8203 71.0572 55.0547C70.9791 55.2839 70.94 55.5495 70.94 55.8516H76.5181V57H69.6041V56.4453C69.6041 55.9661 69.6561 55.5443 69.7603 55.1797C69.8645 54.8151 70.0364 54.4688 70.2759 54.1406C70.5155 53.8125 70.828 53.4844 71.2134 53.1562C71.6041 52.8281 72.0806 52.4583 72.6431 52.0469C73.0494 51.7552 73.3879 51.4766 73.6588 51.2109C73.9348 50.9453 74.1561 50.6797 74.3228 50.4141C74.4895 50.1484 74.6067 49.8802 74.6744 49.6094C74.7473 49.3333 74.7838 49.0417 74.7838 48.7344Z" fill="#625AFA"/>
<path d="M171.812 56.9375V58.6328H171V57C169.891 57 168.99 56.776 168.297 56.3281V54.9688C168.599 55.2344 169.01 55.4583 169.531 55.6406C170.057 55.8177 170.547 55.9062 171 55.9062V51.9062C169.854 51.3542 169.112 50.8464 168.773 50.3828C168.435 49.9141 168.266 49.362 168.266 48.7266C168.266 47.9714 168.523 47.3203 169.039 46.7734C169.555 46.2214 170.208 45.8906 171 45.7812V44.375H171.812V45.75C172.833 45.7812 173.539 45.9271 173.93 46.1875V47.5156C173.398 47.099 172.693 46.875 171.812 46.8438V50.9688C172.896 51.4844 173.635 51.9844 174.031 52.4688C174.432 52.9479 174.633 53.4948 174.633 54.1094C174.633 54.849 174.383 55.4714 173.883 55.9766C173.388 56.4766 172.698 56.7969 171.812 56.9375ZM171 50.5312V46.8906C170.562 46.9792 170.216 47.1745 169.961 47.4766C169.706 47.7734 169.578 48.1354 169.578 48.5625C169.578 49.0104 169.682 49.3776 169.891 49.6641C170.099 49.9505 170.469 50.2396 171 50.5312ZM171.812 52.3125V55.8438C172.818 55.625 173.32 55.0833 173.32 54.2188C173.32 53.5 172.818 52.8646 171.812 52.3125ZM181.441 57H180.16V47.3203C180.061 47.4193 179.915 47.5339 179.722 47.6641C179.535 47.7891 179.321 47.9141 179.082 48.0391C178.847 48.1641 178.597 48.2812 178.332 48.3906C178.071 48.5 177.816 48.5859 177.566 48.6484V47.3516C177.847 47.2734 178.144 47.1693 178.457 47.0391C178.775 46.9036 179.084 46.7552 179.387 46.5938C179.694 46.4271 179.983 46.2552 180.254 46.0781C180.525 45.8958 180.759 45.7188 180.957 45.5469H181.441V57ZM190.226 57H188.945V47.3203C188.846 47.4193 188.7 47.5339 188.507 47.6641C188.32 47.7891 188.106 47.9141 187.867 48.0391C187.632 48.1641 187.382 48.2812 187.117 48.3906C186.856 48.5 186.601 48.5859 186.351 48.6484V47.3516C186.632 47.2734 186.929 47.1693 187.242 47.0391C187.56 46.9036 187.869 46.7552 188.172 46.5938C188.479 46.4271 188.768 46.2552 189.039 46.0781C189.31 45.8958 189.544 45.7188 189.742 45.5469H190.226V57ZM195.824 55.2188L194.574 59.0625H193.66L194.574 55.2188H195.824ZM204.554 53.5781C204.554 54.125 204.46 54.6198 204.273 55.0625C204.085 55.5052 203.817 55.8854 203.468 56.2031C203.124 56.5208 202.708 56.7656 202.218 56.9375C201.729 57.1094 201.184 57.1953 200.585 57.1953C199.544 57.1953 198.77 57.0391 198.265 56.7266V55.3672C199.025 55.8568 199.804 56.1016 200.601 56.1016C201.007 56.1016 201.372 56.0417 201.695 55.9219C202.023 55.8021 202.301 55.6354 202.531 55.4219C202.76 55.2083 202.934 54.9505 203.054 54.6484C203.179 54.3464 203.242 54.0156 203.242 53.6562C203.242 52.9271 202.997 52.3568 202.507 51.9453C202.018 51.5286 201.307 51.3203 200.374 51.3203C200.223 51.3203 200.064 51.3229 199.898 51.3281C199.731 51.3333 199.564 51.3411 199.398 51.3516C199.231 51.3568 199.067 51.3646 198.906 51.375C198.749 51.3854 198.606 51.3984 198.476 51.4141L198.859 45.7969H204.038V46.9531H199.968L199.742 50.2422C199.908 50.2318 200.085 50.224 200.273 50.2188C200.46 50.2083 200.627 50.2031 200.773 50.2031C201.367 50.2031 201.898 50.2812 202.367 50.4375C202.835 50.5938 203.231 50.8177 203.554 51.1094C203.882 51.3958 204.13 51.75 204.296 52.1719C204.468 52.5885 204.554 53.0573 204.554 53.5781ZM213.339 53.5781C213.339 54.125 213.245 54.6198 213.058 55.0625C212.87 55.5052 212.602 55.8854 212.253 56.2031C211.909 56.5208 211.493 56.7656 211.003 56.9375C210.514 57.1094 209.969 57.1953 209.37 57.1953C208.329 57.1953 207.555 57.0391 207.05 56.7266V55.3672C207.81 55.8568 208.589 56.1016 209.386 56.1016C209.792 56.1016 210.157 56.0417 210.48 55.9219C210.808 55.8021 211.086 55.6354 211.316 55.4219C211.545 55.2083 211.719 54.9505 211.839 54.6484C211.964 54.3464 212.027 54.0156 212.027 53.6562C212.027 52.9271 211.782 52.3568 211.292 51.9453C210.803 51.5286 210.092 51.3203 209.159 51.3203C209.008 51.3203 208.849 51.3229 208.683 51.3281C208.516 51.3333 208.349 51.3411 208.183 51.3516C208.016 51.3568 207.852 51.3646 207.691 51.375C207.534 51.3854 207.391 51.3984 207.261 51.4141L207.644 45.7969H212.823V46.9531H208.753L208.527 50.2422C208.693 50.2318 208.87 50.224 209.058 50.2188C209.245 50.2083 209.412 50.2031 209.558 50.2031C210.152 50.2031 210.683 50.2812 211.152 50.4375C211.62 50.5938 212.016 50.8177 212.339 51.1094C212.667 51.3958 212.915 51.75 213.081 52.1719C213.253 52.5885 213.339 53.0573 213.339 53.5781ZM222.538 53.4453C222.538 53.9922 222.45 54.4948 222.272 54.9531C222.095 55.4115 221.851 55.8073 221.538 56.1406C221.226 56.474 220.853 56.7344 220.421 56.9219C219.989 57.1042 219.52 57.1953 219.015 57.1953C218.452 57.1953 217.947 57.0781 217.499 56.8438C217.056 56.6094 216.679 56.2734 216.366 55.8359C216.059 55.3932 215.825 54.8542 215.663 54.2188C215.502 53.5833 215.421 52.8672 215.421 52.0703C215.421 51.0964 215.528 50.2135 215.741 49.4219C215.96 48.625 216.267 47.9453 216.663 47.3828C217.064 46.8151 217.546 46.3776 218.108 46.0703C218.671 45.763 219.299 45.6094 219.991 45.6094C220.762 45.6094 221.382 45.7161 221.851 45.9297V47.1406C221.272 46.8438 220.663 46.6953 220.022 46.6953C219.522 46.6953 219.072 46.8073 218.671 47.0312C218.27 47.2552 217.926 47.5729 217.64 47.9844C217.353 48.3906 217.132 48.8828 216.976 49.4609C216.825 50.0391 216.749 50.6823 216.749 51.3906H216.78C217.296 50.4583 218.147 49.9922 219.335 49.9922C219.825 49.9922 220.265 50.0755 220.655 50.2422C221.051 50.4089 221.387 50.6458 221.663 50.9531C221.944 51.2552 222.161 51.6172 222.312 52.0391C222.463 52.4609 222.538 52.9297 222.538 53.4453ZM221.226 53.6094C221.226 53.2188 221.176 52.8672 221.077 52.5547C220.978 52.2422 220.835 51.9766 220.647 51.7578C220.465 51.5391 220.239 51.3724 219.968 51.2578C219.697 51.138 219.39 51.0781 219.046 51.0781C218.728 51.0781 218.434 51.138 218.163 51.2578C217.892 51.3776 217.658 51.5417 217.46 51.75C217.262 51.9531 217.106 52.1927 216.991 52.4688C216.882 52.7396 216.827 53.0286 216.827 53.3359C216.827 53.7214 216.882 54.0833 216.991 54.4219C217.101 54.7552 217.254 55.0469 217.452 55.2969C217.65 55.5469 217.884 55.7448 218.155 55.8906C218.431 56.0312 218.736 56.1016 219.069 56.1016C219.392 56.1016 219.687 56.0417 219.952 55.9219C220.218 55.7969 220.444 55.625 220.632 55.4062C220.819 55.1875 220.965 54.9271 221.069 54.625C221.174 54.3177 221.226 53.9792 221.226 53.6094ZM225.081 57.1719C224.841 57.1719 224.636 57.0859 224.464 56.9141C224.297 56.7422 224.214 56.5365 224.214 56.2969C224.214 56.0573 224.297 55.8516 224.464 55.6797C224.636 55.5026 224.841 55.4141 225.081 55.4141C225.326 55.4141 225.534 55.5026 225.706 55.6797C225.878 55.8516 225.964 56.0573 225.964 56.2969C225.964 56.5365 225.878 56.7422 225.706 56.9141C225.534 57.0859 225.326 57.1719 225.081 57.1719ZM234.413 53.8281C234.413 54.3333 234.316 54.7943 234.124 55.2109C233.936 55.6224 233.668 55.9766 233.319 56.2734C232.975 56.5651 232.561 56.7917 232.077 56.9531C231.592 57.1146 231.059 57.1953 230.475 57.1953C229.408 57.1953 228.559 56.9922 227.928 56.5859V55.2109C228.684 55.8047 229.548 56.1016 230.522 56.1016C230.913 56.1016 231.264 56.0521 231.577 55.9531C231.895 55.8542 232.165 55.7109 232.389 55.5234C232.619 55.3359 232.793 55.1094 232.913 54.8438C233.038 54.5781 233.1 54.2786 233.1 53.9453C233.1 52.4818 232.059 51.75 229.975 51.75H229.046V50.6641H229.928C231.772 50.6641 232.694 49.9766 232.694 48.6016C232.694 47.3307 231.991 46.6953 230.585 46.6953C229.793 46.6953 229.051 46.9609 228.358 47.4922V46.25C229.072 45.8229 229.921 45.6094 230.905 45.6094C231.374 45.6094 231.798 45.6745 232.178 45.8047C232.559 45.9349 232.884 46.1172 233.155 46.3516C233.426 46.5859 233.634 46.8672 233.78 47.1953C233.931 47.5234 234.007 47.8854 234.007 48.2812C234.007 49.7552 233.262 50.7031 231.772 51.125V51.1562C232.152 51.1979 232.504 51.2917 232.827 51.4375C233.15 51.5781 233.428 51.763 233.663 51.9922C233.897 52.2214 234.079 52.4922 234.21 52.8047C234.345 53.112 234.413 53.4531 234.413 53.8281ZM242.393 45.7969V53.1953H243.831V54.3672H242.393V57H241.128V54.3672H235.862V53.2578C236.351 52.7057 236.846 52.1172 237.346 51.4922C237.846 50.862 238.323 50.224 238.776 49.5781C239.234 48.9323 239.656 48.2891 240.042 47.6484C240.432 47.0026 240.76 46.3854 241.026 45.7969H242.393ZM237.307 53.1953H241.128V47.7109C240.737 48.3932 240.367 49.0026 240.018 49.5391C239.669 50.0755 239.336 50.5625 239.018 51C238.706 51.4375 238.406 51.8333 238.12 52.1875C237.833 52.5417 237.562 52.8776 237.307 53.1953Z" fill="#006908"/>
<path d="M4.24219 80H3.28125V72.7402C3.20703 72.8145 3.09766 72.9004 2.95312 72.998C2.8125 73.0918 2.65234 73.1855 2.47266 73.2793C2.29688 73.373 2.10938 73.4609 1.91016 73.543C1.71484 73.625 1.52344 73.6895 1.33594 73.7363V72.7637C1.54688 72.7051 1.76953 72.627 2.00391 72.5293C2.24219 72.4277 2.47461 72.3164 2.70117 72.1953C2.93164 72.0703 3.14844 71.9414 3.35156 71.8086C3.55469 71.6719 3.73047 71.5391 3.87891 71.4102H4.24219V80ZM7.77539 75.1719C7.5957 75.1719 7.44141 75.1074 7.3125 74.9785C7.1875 74.8496 7.125 74.6953 7.125 74.5156C7.125 74.3359 7.1875 74.1836 7.3125 74.0586C7.44141 73.9336 7.5957 73.8711 7.77539 73.8711C7.95898 73.8711 8.11523 73.9336 8.24414 74.0586C8.37305 74.1836 8.4375 74.3359 8.4375 74.5156C8.4375 74.6953 8.37305 74.8496 8.24414 74.9785C8.11523 75.1074 7.95898 75.1719 7.77539 75.1719ZM7.77539 80.1289C7.5957 80.1289 7.44141 80.0645 7.3125 79.9355C7.1875 79.8066 7.125 79.6523 7.125 79.4727C7.125 79.293 7.1875 79.1387 7.3125 79.0098C7.44141 78.877 7.5957 78.8105 7.77539 78.8105C7.95898 78.8105 8.11523 78.877 8.24414 79.0098C8.37305 79.1387 8.4375 79.293 8.4375 79.4727C8.4375 79.6523 8.37305 79.8066 8.24414 79.9355C8.11523 80.0645 7.95898 80.1289 7.77539 80.1289ZM15.0469 75.7637C15.0469 76.4668 14.9824 77.0898 14.8535 77.6328C14.7285 78.1758 14.5449 78.6348 14.3027 79.0098C14.0645 79.3809 13.7695 79.6641 13.418 79.8594C13.0703 80.0508 12.6738 80.1465 12.2285 80.1465C11.8066 80.1465 11.4297 80.0547 11.0977 79.8711C10.7695 79.6836 10.4922 79.4121 10.2656 79.0566C10.0391 78.7012 9.86719 78.2656 9.75 77.75C9.63281 77.2305 9.57422 76.6367 9.57422 75.9688C9.57422 75.2344 9.63477 74.5859 9.75586 74.0234C9.88086 73.4609 10.0625 72.9902 10.3008 72.6113C10.5391 72.2285 10.834 71.9414 11.1855 71.75C11.541 71.5547 11.9473 71.457 12.4043 71.457C14.166 71.457 15.0469 72.8926 15.0469 75.7637ZM14.0625 75.8574C14.0625 73.4668 13.4941 72.2715 12.3574 72.2715C11.1582 72.2715 10.5586 73.4883 10.5586 75.9219C10.5586 78.1914 11.1465 79.3262 12.3223 79.3262C13.4824 79.3262 14.0625 78.1699 14.0625 75.8574ZM21.5156 75.7637C21.5156 76.4668 21.4512 77.0898 21.3223 77.6328C21.1973 78.1758 21.0137 78.6348 20.7715 79.0098C20.5332 79.3809 20.2383 79.6641 19.8867 79.8594C19.5391 80.0508 19.1426 80.1465 18.6973 80.1465C18.2754 80.1465 17.8984 80.0547 17.5664 79.8711C17.2383 79.6836 16.9609 79.4121 16.7344 79.0566C16.5078 78.7012 16.3359 78.2656 16.2188 77.75C16.1016 77.2305 16.043 76.6367 16.043 75.9688C16.043 75.2344 16.1035 74.5859 16.2246 74.0234C16.3496 73.4609 16.5312 72.9902 16.7695 72.6113C17.0078 72.2285 17.3027 71.9414 17.6543 71.75C18.0098 71.5547 18.416 71.457 18.873 71.457C20.6348 71.457 21.5156 72.8926 21.5156 75.7637ZM20.5312 75.8574C20.5312 73.4668 19.9629 72.2715 18.8262 72.2715C17.627 72.2715 17.0273 73.4883 17.0273 75.9219C17.0273 78.1914 17.6152 79.3262 18.791 79.3262C19.9512 79.3262 20.5312 78.1699 20.5312 75.8574ZM27.3867 76.8242V80H26.4023V71.5977H28.7109C29.6094 71.5977 30.3047 71.8164 30.7969 72.2539C31.293 72.6914 31.541 73.3086 31.541 74.1055C31.541 74.9023 31.2656 75.5547 30.7148 76.0625C30.168 76.5703 29.4277 76.8242 28.4941 76.8242H27.3867ZM27.3867 72.4883V75.9336H28.418C29.0977 75.9336 29.6152 75.7793 29.9707 75.4707C30.3301 75.1582 30.5098 74.7188 30.5098 74.1523C30.5098 73.043 29.8535 72.4883 28.541 72.4883H27.3867ZM41.6953 80H40.7168V74.3633C40.7168 73.918 40.7441 73.373 40.7988 72.7285H40.7754C40.6816 73.1074 40.5977 73.3789 40.5234 73.543L37.6523 80H37.1719L34.3066 73.5898C34.2246 73.4023 34.1406 73.1152 34.0547 72.7285H34.0312C34.0625 73.0645 34.0781 73.6133 34.0781 74.375V80H33.1289V71.5977H34.4297L37.0078 77.457C37.207 77.9062 37.3359 78.2422 37.3945 78.4648H37.4297C37.5977 78.0039 37.7324 77.6602 37.834 77.4336L40.4648 71.5977H41.6953V80Z" fill="#545969"/>
<path d="M176.263 32H174.479L173.597 29.5049H169.741L168.894 32H167.116L170.787 22.1973H172.619L176.263 32ZM173.166 28.1787L171.806 24.2686C171.765 24.141 171.721 23.9359 171.676 23.6533H171.648C171.607 23.9131 171.562 24.1182 171.512 24.2686L170.165 28.1787H173.166ZM183.543 32H181.957V30.8926H181.93C181.469 31.7402 180.754 32.1641 179.783 32.1641C178.129 32.1641 177.302 31.1706 177.302 29.1836V25H178.888V29.0195C178.888 30.2773 179.373 30.9062 180.344 30.9062C180.813 30.9062 181.198 30.7331 181.499 30.3867C181.804 30.0404 181.957 29.5869 181.957 29.0264V25H183.543V32ZM191.985 31.4395C191.985 34.0098 190.693 35.2949 188.109 35.2949C187.198 35.2949 186.403 35.1423 185.724 34.8369V33.3877C186.489 33.8252 187.216 34.0439 187.904 34.0439C189.568 34.0439 190.399 33.2259 190.399 31.5898V30.8242H190.372C189.848 31.7174 189.06 32.1641 188.007 32.1641C187.155 32.1641 186.466 31.8542 185.942 31.2344C185.423 30.61 185.163 29.7738 185.163 28.7256C185.163 27.5361 185.443 26.5905 186.004 25.8887C186.564 25.1868 187.335 24.8359 188.314 24.8359C189.24 24.8359 189.925 25.2142 190.372 25.9707H190.399V25H191.985V31.4395ZM190.413 28.7939V27.8848C190.413 27.3926 190.249 26.9733 189.921 26.627C189.597 26.276 189.192 26.1006 188.704 26.1006C188.103 26.1006 187.631 26.3239 187.289 26.7705C186.952 27.2126 186.783 27.8324 186.783 28.6299C186.783 29.318 186.945 29.8695 187.269 30.2842C187.597 30.6943 188.03 30.8994 188.567 30.8994C189.114 30.8994 189.559 30.7035 189.9 30.3115C190.242 29.915 190.413 29.4092 190.413 28.7939ZM200.154 32H198.568V30.8926H198.541C198.081 31.7402 197.365 32.1641 196.395 32.1641C194.74 32.1641 193.913 31.1706 193.913 29.1836V25H195.499V29.0195C195.499 30.2773 195.984 30.9062 196.955 30.9062C197.424 30.9062 197.81 30.7331 198.11 30.3867C198.416 30.0404 198.568 29.5869 198.568 29.0264V25H200.154V32ZM201.788 31.7812V30.3115C202.381 30.7627 203.035 30.9883 203.75 30.9883C204.707 30.9883 205.186 30.7057 205.186 30.1406C205.186 29.9811 205.145 29.8467 205.062 29.7373C204.98 29.6234 204.869 29.5231 204.728 29.4365C204.591 29.3499 204.427 29.2725 204.235 29.2041C204.049 29.1357 203.839 29.0583 203.606 28.9717C203.319 28.8577 203.06 28.737 202.827 28.6094C202.599 28.4818 202.408 28.3382 202.253 28.1787C202.103 28.0146 201.989 27.8301 201.911 27.625C201.834 27.4199 201.795 27.1807 201.795 26.9072C201.795 26.57 201.875 26.2738 202.034 26.0186C202.194 25.7588 202.408 25.5423 202.677 25.3691C202.946 25.1914 203.251 25.0592 203.593 24.9727C203.935 24.8815 204.288 24.8359 204.652 24.8359C205.299 24.8359 205.878 24.9339 206.389 25.1299V26.5176C205.896 26.1803 205.331 26.0117 204.693 26.0117C204.493 26.0117 204.311 26.0322 204.146 26.0732C203.987 26.1143 203.85 26.1712 203.736 26.2441C203.622 26.3171 203.534 26.4059 203.47 26.5107C203.406 26.611 203.374 26.7227 203.374 26.8457C203.374 26.9961 203.406 27.1237 203.47 27.2285C203.534 27.3333 203.627 27.4268 203.75 27.5088C203.878 27.5863 204.028 27.6592 204.201 27.7275C204.379 27.7913 204.582 27.862 204.81 27.9395C205.11 28.0625 205.379 28.1878 205.616 28.3154C205.858 28.443 206.063 28.5889 206.231 28.7529C206.4 28.9124 206.53 29.0993 206.621 29.3135C206.712 29.5231 206.758 29.7738 206.758 30.0654C206.758 30.4209 206.676 30.7308 206.512 30.9951C206.348 31.2594 206.129 31.4782 205.855 31.6514C205.582 31.8245 205.265 31.9521 204.905 32.0342C204.55 32.1208 204.174 32.1641 203.777 32.1641C203.012 32.1641 202.349 32.0365 201.788 31.7812ZM211.96 31.9248C211.65 32.0798 211.242 32.1572 210.736 32.1572C209.378 32.1572 208.699 31.5055 208.699 30.2021V26.2441H207.53V25H208.699V23.3799L210.285 22.9287V25H211.96V26.2441H210.285V29.7441C210.285 30.1589 210.36 30.4551 210.511 30.6328C210.661 30.8105 210.912 30.8994 211.263 30.8994C211.532 30.8994 211.764 30.8219 211.96 30.667V31.9248ZM222.193 31.6787C221.633 32.0023 220.97 32.1641 220.204 32.1641C219.165 32.1641 218.326 31.8405 217.688 31.1934C217.05 30.5417 216.731 29.6986 216.731 28.6641C216.731 27.5111 217.073 26.5859 217.757 25.8887C218.445 25.1868 219.363 24.8359 220.512 24.8359C221.15 24.8359 221.713 24.9476 222.2 25.1709V26.6475C221.713 26.2829 221.193 26.1006 220.642 26.1006C219.972 26.1006 219.423 26.3285 218.994 26.7842C218.566 27.2354 218.352 27.8278 218.352 28.5615C218.352 29.2861 218.552 29.8581 218.953 30.2773C219.359 30.6966 219.901 30.9062 220.58 30.9062C221.15 30.9062 221.688 30.7035 222.193 30.2979V31.6787ZM229.146 32H227.607V30.9062H227.58C227.097 31.7448 226.388 32.1641 225.454 32.1641C224.766 32.1641 224.226 31.9772 223.834 31.6035C223.447 31.2298 223.253 30.7354 223.253 30.1201C223.253 28.7985 224.014 28.0283 225.536 27.8096L227.614 27.5156C227.614 26.5176 227.14 26.0186 226.192 26.0186C225.358 26.0186 224.606 26.3057 223.937 26.8799V25.4922C224.675 25.0547 225.527 24.8359 226.493 24.8359C228.261 24.8359 229.146 25.7064 229.146 27.4473V32ZM227.614 28.5615L226.145 28.7666C225.689 28.8258 225.345 28.9375 225.112 29.1016C224.884 29.2611 224.771 29.5436 224.771 29.9492C224.771 30.2454 224.875 30.4893 225.085 30.6807C225.299 30.8675 225.584 30.9609 225.939 30.9609C226.423 30.9609 226.821 30.7923 227.136 30.4551C227.455 30.1133 227.614 29.6849 227.614 29.1699V28.5615ZM230.649 31.7812V30.3115C231.242 30.7627 231.896 30.9883 232.611 30.9883C233.568 30.9883 234.047 30.7057 234.047 30.1406C234.047 29.9811 234.006 29.8467 233.924 29.7373C233.842 29.6234 233.73 29.5231 233.589 29.4365C233.452 29.3499 233.288 29.2725 233.097 29.2041C232.91 29.1357 232.7 29.0583 232.468 28.9717C232.181 28.8577 231.921 28.737 231.688 28.6094C231.461 28.4818 231.269 28.3382 231.114 28.1787C230.964 28.0146 230.85 27.8301 230.772 27.625C230.695 27.4199 230.656 27.1807 230.656 26.9072C230.656 26.57 230.736 26.2738 230.896 26.0186C231.055 25.7588 231.269 25.5423 231.538 25.3691C231.807 25.1914 232.112 25.0592 232.454 24.9727C232.796 24.8815 233.149 24.8359 233.514 24.8359C234.161 24.8359 234.74 24.9339 235.25 25.1299V26.5176C234.758 26.1803 234.193 26.0117 233.555 26.0117C233.354 26.0117 233.172 26.0322 233.008 26.0732C232.848 26.1143 232.712 26.1712 232.598 26.2441C232.484 26.3171 232.395 26.4059 232.331 26.5107C232.267 26.611 232.235 26.7227 232.235 26.8457C232.235 26.9961 232.267 27.1237 232.331 27.2285C232.395 27.3333 232.488 27.4268 232.611 27.5088C232.739 27.5863 232.889 27.6592 233.062 27.7275C233.24 27.7913 233.443 27.862 233.671 27.9395C233.972 28.0625 234.241 28.1878 234.478 28.3154C234.719 28.443 234.924 28.5889 235.093 28.7529C235.261 28.9124 235.391 29.0993 235.482 29.3135C235.574 29.5231 235.619 29.7738 235.619 30.0654C235.619 30.4209 235.537 30.7308 235.373 30.9951C235.209 31.2594 234.99 31.4782 234.717 31.6514C234.443 31.8245 234.127 31.9521 233.767 32.0342C233.411 32.1208 233.035 32.1641 232.639 32.1641C231.873 32.1641 231.21 32.0365 230.649 31.7812ZM243.351 32H241.765V28.1719C241.765 26.7865 241.302 26.0938 240.377 26.0938C239.912 26.0938 239.52 26.2943 239.201 26.6953C238.882 27.0964 238.723 27.609 238.723 28.2334V32H237.13V21.6367H238.723V26.1621H238.75C239.279 25.278 240.035 24.8359 241.02 24.8359C242.574 24.8359 243.351 25.7861 243.351 27.6865V32ZM246.892 30.9883H246.864V32H245.278V21.6367H246.864V26.2305H246.892C247.434 25.3008 248.227 24.8359 249.271 24.8359C250.155 24.8359 250.845 25.1504 251.342 25.7793C251.843 26.4036 252.094 27.2422 252.094 28.2949C252.094 29.4661 251.813 30.4049 251.253 31.1113C250.692 31.8132 249.927 32.1641 248.956 32.1641C248.045 32.1641 247.356 31.7721 246.892 30.9883ZM246.851 28.2061V29.0742C246.851 29.5846 247.012 30.0176 247.336 30.373C247.664 30.7285 248.079 30.9062 248.58 30.9062C249.168 30.9062 249.628 30.6784 249.961 30.2227C250.298 29.7624 250.467 29.1221 250.467 28.3018C250.467 27.6136 250.31 27.0758 249.995 26.6885C249.685 26.2965 249.264 26.1006 248.73 26.1006C248.165 26.1006 247.71 26.3011 247.363 26.7021C247.021 27.1032 246.851 27.6045 246.851 28.2061ZM258.923 32H257.385V30.9062H257.357C256.874 31.7448 256.166 32.1641 255.231 32.1641C254.543 32.1641 254.003 31.9772 253.611 31.6035C253.224 31.2298 253.03 30.7354 253.03 30.1201C253.03 28.7985 253.791 28.0283 255.313 27.8096L257.392 27.5156C257.392 26.5176 256.918 26.0186 255.97 26.0186C255.136 26.0186 254.384 26.3057 253.714 26.8799V25.4922C254.452 25.0547 255.304 24.8359 256.271 24.8359C258.039 24.8359 258.923 25.7064 258.923 27.4473V32ZM257.392 28.5615L255.922 28.7666C255.466 28.8258 255.122 28.9375 254.89 29.1016C254.662 29.2611 254.548 29.5436 254.548 29.9492C254.548 30.2454 254.653 30.4893 254.862 30.6807C255.076 30.8675 255.361 30.9609 255.717 30.9609C256.2 30.9609 256.599 30.7923 256.913 30.4551C257.232 30.1133 257.392 29.6849 257.392 29.1699V28.5615ZM265.875 31.6787C265.314 32.0023 264.651 32.1641 263.886 32.1641C262.847 32.1641 262.008 31.8405 261.37 31.1934C260.732 30.5417 260.413 29.6986 260.413 28.6641C260.413 27.5111 260.755 26.5859 261.438 25.8887C262.127 25.1868 263.045 24.8359 264.193 24.8359C264.831 24.8359 265.394 24.9476 265.882 25.1709V26.6475C265.394 26.2829 264.875 26.1006 264.323 26.1006C263.653 26.1006 263.104 26.3285 262.676 26.7842C262.247 27.2354 262.033 27.8278 262.033 28.5615C262.033 29.2861 262.234 29.8581 262.635 30.2773C263.04 30.6966 263.583 30.9062 264.262 30.9062C264.831 30.9062 265.369 30.7035 265.875 30.2979V31.6787ZM273.805 32H271.795L269.074 28.6367H269.047V32H267.454V21.6367H269.047V28.2061H269.074L271.645 25H273.552L270.66 28.377L273.805 32Z" fill="#687385"/>
<path d="M10.2627 32H8.47852L7.59668 29.5049H3.74121L2.89355 32H1.11621L4.78711 22.1973H6.61914L10.2627 32ZM7.16602 28.1787L5.80566 24.2686C5.76465 24.141 5.72135 23.9359 5.67578 23.6533H5.64844C5.60742 23.9131 5.56185 24.1182 5.51172 24.2686L4.16504 28.1787H7.16602ZM17.543 32H15.957V30.8926H15.9297C15.4694 31.7402 14.7539 32.1641 13.7832 32.1641C12.1289 32.1641 11.3018 31.1706 11.3018 29.1836V25H12.8877V29.0195C12.8877 30.2773 13.373 30.9062 14.3438 30.9062C14.8132 30.9062 15.1982 30.7331 15.499 30.3867C15.8044 30.0404 15.957 29.5869 15.957 29.0264V25H17.543V32ZM25.9854 31.4395C25.9854 34.0098 24.6934 35.2949 22.1094 35.2949C21.1979 35.2949 20.4027 35.1423 19.7236 34.8369V33.3877C20.4893 33.8252 21.2161 34.0439 21.9043 34.0439C23.5677 34.0439 24.3994 33.2259 24.3994 31.5898V30.8242H24.3721C23.848 31.7174 23.0596 32.1641 22.0068 32.1641C21.1546 32.1641 20.4665 31.8542 19.9424 31.2344C19.4229 30.61 19.1631 29.7738 19.1631 28.7256C19.1631 27.5361 19.4434 26.5905 20.0039 25.8887C20.5645 25.1868 21.3346 24.8359 22.3145 24.8359C23.2396 24.8359 23.9255 25.2142 24.3721 25.9707H24.3994V25H25.9854V31.4395ZM24.4131 28.7939V27.8848C24.4131 27.3926 24.249 26.9733 23.9209 26.627C23.5973 26.276 23.1917 26.1006 22.7041 26.1006C22.1025 26.1006 21.6309 26.3239 21.2891 26.7705C20.9518 27.2126 20.7832 27.8324 20.7832 28.6299C20.7832 29.318 20.945 29.8695 21.2686 30.2842C21.5967 30.6943 22.0296 30.8994 22.5674 30.8994C23.1143 30.8994 23.5586 30.7035 23.9004 30.3115C24.2422 29.915 24.4131 29.4092 24.4131 28.7939ZM34.1543 32H32.5684V30.8926H32.541C32.0807 31.7402 31.3652 32.1641 30.3945 32.1641C28.7402 32.1641 27.9131 31.1706 27.9131 29.1836V25H29.499V29.0195C29.499 30.2773 29.9844 30.9062 30.9551 30.9062C31.4245 30.9062 31.8096 30.7331 32.1104 30.3867C32.4157 30.0404 32.5684 29.5869 32.5684 29.0264V25H34.1543V32ZM35.7881 31.7812V30.3115C36.3805 30.7627 37.0345 30.9883 37.75 30.9883C38.707 30.9883 39.1855 30.7057 39.1855 30.1406C39.1855 29.9811 39.1445 29.8467 39.0625 29.7373C38.9805 29.6234 38.8688 29.5231 38.7275 29.4365C38.5908 29.3499 38.4268 29.2725 38.2354 29.2041C38.0485 29.1357 37.8389 29.0583 37.6064 28.9717C37.3193 28.8577 37.0596 28.737 36.8271 28.6094C36.5993 28.4818 36.4079 28.3382 36.2529 28.1787C36.1025 28.0146 35.9886 27.8301 35.9111 27.625C35.8337 27.4199 35.7949 27.1807 35.7949 26.9072C35.7949 26.57 35.8747 26.2738 36.0342 26.0186C36.1937 25.7588 36.4079 25.5423 36.6768 25.3691C36.9456 25.1914 37.251 25.0592 37.5928 24.9727C37.9346 24.8815 38.2878 24.8359 38.6523 24.8359C39.2995 24.8359 39.8783 24.9339 40.3887 25.1299V26.5176C39.8965 26.1803 39.3314 26.0117 38.6934 26.0117C38.4928 26.0117 38.3105 26.0322 38.1465 26.0732C37.987 26.1143 37.8503 26.1712 37.7363 26.2441C37.6224 26.3171 37.5335 26.4059 37.4697 26.5107C37.4059 26.611 37.374 26.7227 37.374 26.8457C37.374 26.9961 37.4059 27.1237 37.4697 27.2285C37.5335 27.3333 37.627 27.4268 37.75 27.5088C37.8776 27.5863 38.028 27.6592 38.2012 27.7275C38.3789 27.7913 38.5817 27.862 38.8096 27.9395C39.1104 28.0625 39.3792 28.1878 39.6162 28.3154C39.8577 28.443 40.0628 28.5889 40.2314 28.7529C40.4001 28.9124 40.5299 29.0993 40.6211 29.3135C40.7122 29.5231 40.7578 29.7738 40.7578 30.0654C40.7578 30.4209 40.6758 30.7308 40.5117 30.9951C40.3477 31.2594 40.1289 31.4782 39.8555 31.6514C39.582 31.8245 39.2653 31.9521 38.9053 32.0342C38.5498 32.1208 38.1738 32.1641 37.7773 32.1641C37.0117 32.1641 36.3486 32.0365 35.7881 31.7812ZM45.96 31.9248C45.6501 32.0798 45.2422 32.1572 44.7363 32.1572C43.3783 32.1572 42.6992 31.5055 42.6992 30.2021V26.2441H41.5303V25H42.6992V23.3799L44.2852 22.9287V25H45.96V26.2441H44.2852V29.7441C44.2852 30.1589 44.3604 30.4551 44.5107 30.6328C44.6611 30.8105 44.9118 30.8994 45.2627 30.8994C45.5316 30.8994 45.764 30.8219 45.96 30.667V31.9248ZM50.7451 31.7812V30.3115C51.3376 30.7627 51.9915 30.9883 52.707 30.9883C53.6641 30.9883 54.1426 30.7057 54.1426 30.1406C54.1426 29.9811 54.1016 29.8467 54.0195 29.7373C53.9375 29.6234 53.8258 29.5231 53.6846 29.4365C53.5479 29.3499 53.3838 29.2725 53.1924 29.2041C53.0055 29.1357 52.7959 29.0583 52.5635 28.9717C52.2764 28.8577 52.0166 28.737 51.7842 28.6094C51.5563 28.4818 51.3649 28.3382 51.21 28.1787C51.0596 28.0146 50.9456 27.8301 50.8682 27.625C50.7907 27.4199 50.752 27.1807 50.752 26.9072C50.752 26.57 50.8317 26.2738 50.9912 26.0186C51.1507 25.7588 51.3649 25.5423 51.6338 25.3691C51.9027 25.1914 52.208 25.0592 52.5498 24.9727C52.8916 24.8815 53.2448 24.8359 53.6094 24.8359C54.2565 24.8359 54.8353 24.9339 55.3457 25.1299V26.5176C54.8535 26.1803 54.2884 26.0117 53.6504 26.0117C53.4499 26.0117 53.2676 26.0322 53.1035 26.0732C52.944 26.1143 52.8073 26.1712 52.6934 26.2441C52.5794 26.3171 52.4906 26.4059 52.4268 26.5107C52.363 26.611 52.3311 26.7227 52.3311 26.8457C52.3311 26.9961 52.363 27.1237 52.4268 27.2285C52.4906 27.3333 52.584 27.4268 52.707 27.5088C52.8346 27.5863 52.985 27.6592 53.1582 27.7275C53.3359 27.7913 53.5387 27.862 53.7666 27.9395C54.0674 28.0625 54.3363 28.1878 54.5732 28.3154C54.8148 28.443 55.0199 28.5889 55.1885 28.7529C55.3571 28.9124 55.487 29.0993 55.5781 29.3135C55.6693 29.5231 55.7148 29.7738 55.7148 30.0654C55.7148 30.4209 55.6328 30.7308 55.4688 30.9951C55.3047 31.2594 55.0859 31.4782 54.8125 31.6514C54.5391 31.8245 54.2223 31.9521 53.8623 32.0342C53.5068 32.1208 53.1309 32.1641 52.7344 32.1641C51.9688 32.1641 51.3057 32.0365 50.7451 31.7812ZM58.8389 30.9678H58.8115V35.2197H57.2256V25H58.8115V26.2305H58.8389C59.3812 25.3008 60.1742 24.8359 61.2178 24.8359C62.1064 24.8359 62.7992 25.1481 63.2959 25.7725C63.7926 26.3968 64.041 27.2354 64.041 28.2881C64.041 29.4548 63.7607 30.389 63.2002 31.0908C62.6396 31.7926 61.874 32.1436 60.9033 32.1436C60.0101 32.1436 59.3219 31.7516 58.8389 30.9678ZM58.7979 28.2061V29.0742C58.7979 29.5846 58.9596 30.0176 59.2832 30.373C59.6113 30.7285 60.026 30.9062 60.5273 30.9062C61.1152 30.9062 61.5755 30.6784 61.9082 30.2227C62.2454 29.7624 62.4141 29.1221 62.4141 28.3018C62.4141 27.6136 62.2568 27.0758 61.9424 26.6885C61.6325 26.2965 61.2109 26.1006 60.6777 26.1006C60.1126 26.1006 59.6569 26.3011 59.3105 26.7021C58.9688 27.1032 58.7979 27.6045 58.7979 28.2061ZM71.5879 28.9307H66.8164C66.8346 29.5778 67.0329 30.0768 67.4111 30.4277C67.7939 30.7786 68.318 30.9541 68.9834 30.9541C69.7308 30.9541 70.4167 30.7308 71.041 30.2842V31.5625C70.403 31.9635 69.5599 32.1641 68.5117 32.1641C67.4818 32.1641 66.6729 31.8473 66.085 31.2139C65.5016 30.5758 65.21 29.6803 65.21 28.5273C65.21 27.4382 65.5312 26.5518 66.1738 25.8682C66.821 25.18 67.623 24.8359 68.5801 24.8359C69.5371 24.8359 70.2777 25.1436 70.8018 25.7588C71.3258 26.374 71.5879 27.2285 71.5879 28.3223V28.9307ZM70.0566 27.8096C70.0521 27.2399 69.9176 26.7979 69.6533 26.4834C69.389 26.1644 69.0244 26.0049 68.5596 26.0049C68.1038 26.0049 67.7165 26.1712 67.3975 26.5039C67.083 26.8366 66.8893 27.2718 66.8164 27.8096H70.0566ZM79.333 32H77.7471V28.0557C77.7471 26.7477 77.2845 26.0938 76.3594 26.0938C75.8763 26.0938 75.4775 26.276 75.1631 26.6406C74.8486 27.0007 74.6914 27.4564 74.6914 28.0078V32H73.0986V25H74.6914V26.1621H74.7188C75.2428 25.278 75.9993 24.8359 76.9883 24.8359C77.7493 24.8359 78.3304 25.0843 78.7314 25.5811C79.1325 26.0732 79.333 26.7865 79.333 27.7207V32ZM87.6387 32H86.0527V30.8105H86.0254C85.515 31.7129 84.7288 32.1641 83.667 32.1641C82.8057 32.1641 82.1152 31.8519 81.5957 31.2275C81.0807 30.5986 80.8232 29.7441 80.8232 28.6641C80.8232 27.5065 81.1081 26.5791 81.6777 25.8818C82.252 25.1846 83.0153 24.8359 83.9678 24.8359C84.9111 24.8359 85.597 25.2142 86.0254 25.9707H86.0527V21.6367H87.6387V32ZM86.0732 28.8008V27.8848C86.0732 27.388 85.9115 26.9665 85.5879 26.6201C85.2643 26.2738 84.8519 26.1006 84.3506 26.1006C83.7581 26.1006 83.291 26.3216 82.9492 26.7637C82.612 27.2057 82.4434 27.8187 82.4434 28.6025C82.4434 29.3135 82.6051 29.8763 82.9287 30.291C83.2568 30.7012 83.6966 30.9062 84.248 30.9062C84.7904 30.9062 85.2301 30.708 85.5674 30.3115C85.9046 29.9105 86.0732 29.4069 86.0732 28.8008Z" fill="#687385"/>
<line opacity="0.3" x1="0.5" y1="94" x2="0.5" y2="181.901" stroke="#C0C8D2"/>
<line opacity="0.3" x1="56.0015" y1="94" x2="56.0015" y2="181.901" stroke="#C0C8D2"/>
<line opacity="0.3" x1="111.503" y1="94" x2="111.503" y2="181.901" stroke="#C0C8D2"/>
<line opacity="0.3" x1="167.005" y1="94" x2="167.005" y2="181.901" stroke="#C0C8D2"/>
<line opacity="0.3" x1="222.507" y1="94" x2="222.507" y2="181.901" stroke="#C0C8D2"/>
<line opacity="0.3" x1="278.008" y1="94" x2="278.008" y2="181.901" stroke="#C0C8D2"/>
<line opacity="0.3" x1="333.51" y1="94" x2="333.51" y2="181.901" stroke="#C0C8D2"/>
<line opacity="0.3" x1="389.011" y1="94" x2="389.011" y2="181.901" stroke="#C0C8D2"/>
<line opacity="0.3" x1="444.513" y1="94" x2="444.513" y2="181.901" stroke="#C0C8D2"/>
<line opacity="0.3" x1="500.015" y1="94" x2="500.015" y2="181.901" stroke="#C0C8D2"/>
<line opacity="0.3" x1="555.516" y1="94" x2="555.516" y2="181.901" stroke="#C0C8D2"/>
<line opacity="0.3" x1="611.018" y1="94" x2="611.018" y2="181.901" stroke="#C0C8D2"/>
<line opacity="0.3" x1="666.52" y1="94" x2="666.52" y2="181.901" stroke="#C0C8D2"/>
<line opacity="0.3" x1="722.021" y1="94" x2="722.021" y2="181.901" stroke="#C0C8D2"/>
<line opacity="0.3" x1="777.522" y1="94" x2="777.522" y2="181.901" stroke="#C0C8D2"/>
<line opacity="0.3" x1="833.024" y1="94" x2="833.024" y2="181.901" stroke="#C0C8D2"/>
<line opacity="0.3" x1="888.526" y1="94" x2="888.526" y2="181.901" stroke="#C0C8D2"/>
<line opacity="0.3" x1="944.027" y1="94" x2="944.027" y2="181.901" stroke="#C0C8D2"/>
<line opacity="0.3" x1="999.529" y1="94" x2="999.529" y2="181.901" stroke="#C0C8D2"/>
<line opacity="0.3" x1="1055.03" y1="94" x2="1055.03" y2="181.901" stroke="#C0C8D2"/>
<line opacity="0.3" x1="1110.53" y1="94" x2="1110.53" y2="181.901" stroke="#C0C8D2"/>
<line opacity="0.3" x1="1166.03" y1="94" x2="1166.03" y2="181.901" stroke="#C0C8D2"/>
<line opacity="0.3" x1="1224.12" y1="94" x2="1224.12" y2="181.901" stroke="#C0C8D2"/>
<line opacity="0.3" y1="182.5" x2="1225" y2="182.5" stroke="#C0C8D2"/>
<path d="M2.75586 180L53.7248 177.152L105.49 176.013L156.459 173.735L205.039 172.026L258.397 170.318L306.977 168.04L357.946 165.762L408.915 162.344L460.68 157.788L511.649 154.371L562.618 149.815L612.791 144.689L662.963 140.132L713.932 134.437L765.698 128.742L815.87 123.616L866.839 117.351L917.808 114.503L968.777 109.947L1019.75 105.391L1071.51 102.543L1121.68 98.5563L1173.45 96.2781L1223.62 94" stroke="#C0C8D2" stroke-linecap="round" stroke-linejoin="round"/>
<path d="M1.37793 180L52.8153 176.947L105.056 175.726L156.494 173.283L205.52 170.23L259.368 168.398L308.395 167.177L359.832 162.292L410.466 158.628L463.511 153.743L514.948 147.027L566.385 137.257L619.43 129.319L669.26 123.212L720.697 117.106L784.055 111" stroke="#625AFA" stroke-width="1.5" stroke-linecap="round" stroke-linejoin="round"/>
<circle cx="784.299" cy="111" r="3" fill="#625AFA"/>
<line y1="0.5" x2="1245" y2="0.5" stroke="#EBEEF1"/>
<line y1="225.5" x2="1245" y2="225.5" stroke="#EBEEF1"/>
<line x1="1245.5" y1="1" x2="1245.5" y2="226" stroke="#EBEEF1"/>
</svg>
