<svg width="62" height="62" viewBox="0 0 62 62" fill="none" xmlns="http://www.w3.org/2000/svg">
<g opacity="0.6">
<path d="M31 5.8125C26.0184 5.8125 21.1486 7.28972 17.0066 10.0574C12.8645 12.825 9.63618 16.7587 7.7298 21.3612C5.82341 25.9636 5.32462 31.0279 6.29648 35.9138C7.26835 40.7997 9.66722 45.2877 13.1898 48.8103C16.7123 52.3328 21.2003 54.7317 26.0862 55.7035C30.9721 56.6754 36.0364 56.1766 40.6388 54.2702C45.2413 52.3638 49.175 49.1355 51.9427 44.9934C54.7103 40.8514 56.1875 35.9816 56.1875 31C56.1811 24.3218 53.5254 17.919 48.8032 13.1968C44.081 8.47465 37.6782 5.81891 31 5.8125ZM31 52.3125C26.7848 52.3125 22.6642 51.0625 19.1594 48.7207C15.6546 46.3788 12.9229 43.0503 11.3098 39.1559C9.69674 35.2616 9.27468 30.9764 10.097 26.8421C10.9194 22.7079 12.9492 18.9104 15.9298 15.9298C18.9104 12.9492 22.7079 10.9194 26.8421 10.097C30.9764 9.27467 35.2616 9.69672 39.156 11.3098C43.0503 12.9229 46.3789 15.6546 48.7207 19.1594C51.0626 22.6642 52.3125 26.7848 52.3125 31C52.3061 36.6505 50.0586 42.0677 46.0631 46.0631C42.0677 50.0586 36.6505 52.3061 31 52.3125ZM42.625 31C42.625 31.5139 42.4209 32.0067 42.0575 32.37C41.6942 32.7334 41.2014 32.9375 40.6875 32.9375H32.9375V40.6875C32.9375 41.2014 32.7334 41.6942 32.37 42.0575C32.0067 42.4209 31.5139 42.625 31 42.625C30.4862 42.625 29.9933 42.4209 29.63 42.0575C29.2666 41.6942 29.0625 41.2014 29.0625 40.6875V32.9375H21.3125C20.7987 32.9375 20.3058 32.7334 19.9425 32.37C19.5791 32.0067 19.375 31.5139 19.375 31C19.375 30.4861 19.5791 29.9933 19.9425 29.63C20.3058 29.2666 20.7987 29.0625 21.3125 29.0625H29.0625V21.3125C29.0625 20.7986 29.2666 20.3058 29.63 19.9425C29.9933 19.5791 30.4862 19.375 31 19.375C31.5139 19.375 32.0067 19.5791 32.37 19.9425C32.7334 20.3058 32.9375 20.7986 32.9375 21.3125V29.0625H40.6875C41.2014 29.0625 41.6942 29.2666 42.0575 29.63C42.4209 29.9933 42.625 30.4861 42.625 31Z" fill="#C0C8D2"/>
</g>
</svg>
