<svg width="16" height="16" viewBox="0 0 16 16" fill="none" xmlns="http://www.w3.org/2000/svg">
<g id="cancel">
<path id="Glyph" fill-rule="evenodd" clip-rule="evenodd" d="M8.00085 6.58513L12.5928 1.99316C12.9837 1.60228 13.6175 1.60228 14.0083 1.99316C14.3992 2.38405 14.3992 3.0178 14.0083 3.40868L9.41703 8L14.0083 12.5913C14.3992 12.9822 14.3992 13.6159 14.0083 14.0068C13.6175 14.3977 12.9837 14.3977 12.5928 14.0068L8.00085 9.41487L3.40888 14.0068C3.018 14.3977 2.38425 14.3977 1.99336 14.0068C1.60247 13.6159 1.60247 12.9822 1.99336 12.5913L6.58467 8L1.99336 3.40868C1.60247 3.0178 1.60247 2.38405 1.99336 1.99316C2.38425 1.60228 3.018 1.60228 3.40888 1.99316L8.00085 6.58513Z" fill="#8792A2"/>
</g>
</svg>
