<svg width="12" height="12" viewBox="0 0 12 12" fill="none" xmlns="http://www.w3.org/2000/svg">
<g id="icons/check">
<path id="Glyph" fill-rule="evenodd" clip-rule="evenodd" d="M12 6C12 9.31371 9.31371 12 6 12C2.68629 12 0 9.31371 0 6C0 2.68629 2.68629 0 6 0C9.31371 0 12 2.68629 12 6ZM9.37311 3.74641C9.08022 3.45351 8.60535 3.45351 8.31245 3.74641L5.25 6.81434L3.90533 5.46967C3.61244 5.17678 3.13756 5.17678 2.84467 5.46967C2.55178 5.76256 2.55178 6.23744 2.84467 6.53033L4.71967 8.40533C5.01256 8.69822 5.48744 8.69822 5.78033 8.40533L9.37311 4.80707C9.66601 4.51417 9.66601 4.0393 9.37311 3.74641Z" fill="#006908"/>
</g>
</svg>
