<svg width="20" height="20" viewBox="0 0 20 20" fill="none" xmlns="http://www.w3.org/2000/svg">
<path d="M14.7785 6.22908C14.7083 6.15877 14.625 6.10298 14.5332 6.06492C14.4415 6.02686 14.3431 6.00726 14.2438 6.00726C14.1444 6.00726 14.0461 6.02686 13.9543 6.06492C13.8625 6.10298 13.7792 6.15877 13.709 6.22908L10 9.93053L6.29097 6.2215C6.22075 6.15127 6.13738 6.09557 6.04563 6.05756C5.95388 6.01956 5.85554 6 5.75623 6C5.65692 6 5.55859 6.01956 5.46683 6.05756C5.37508 6.09557 5.29172 6.15127 5.2215 6.2215C5.15127 6.29172 5.09557 6.37508 5.05756 6.46683C5.01956 6.55859 5 6.65692 5 6.75623C5 6.85554 5.01956 6.95388 5.05756 7.04563C5.09557 7.13738 5.15127 7.22075 5.2215 7.29097L8.93053 11L5.2215 14.709C5.15127 14.7793 5.09557 14.8626 5.05756 14.9544C5.01956 15.0461 5 15.1445 5 15.2438C5 15.3431 5.01956 15.4414 5.05756 15.5332C5.09557 15.6249 5.15127 15.7083 5.2215 15.7785C5.29172 15.8487 5.37508 15.9044 5.46683 15.9424C5.55859 15.9804 5.65692 16 5.75623 16C5.85554 16 5.95388 15.9804 6.04563 15.9424C6.13738 15.9044 6.22075 15.8487 6.29097 15.7785L10 12.0695L13.709 15.7785C13.7793 15.8487 13.8626 15.9044 13.9544 15.9424C14.0461 15.9804 14.1445 16 14.2438 16C14.3431 16 14.4414 15.9804 14.5332 15.9424C14.6249 15.9044 14.7083 15.8487 14.7785 15.7785C14.8487 15.7083 14.9044 15.6249 14.9424 15.5332C14.9804 15.4414 15 15.3431 15 15.2438C15 15.1445 14.9804 15.0461 14.9424 14.9544C14.9044 14.8626 14.8487 14.7793 14.7785 14.709L11.0695 11L14.7785 7.29097C15.0667 7.00274 15.0667 6.51731 14.7785 6.22908Z" fill="#687385"/>
</svg>
