<svg width="16" height="16" viewBox="0 0 16 16" fill="none" xmlns="http://www.w3.org/2000/svg">
<path fill-rule="evenodd" clip-rule="evenodd" d="M8.00061 6.58513L12.5926 1.99316C12.9835 1.60228 13.6172 1.60228 14.0081 1.99316C14.399 2.38405 14.399 3.0178 14.0081 3.40868L9.41678 8L14.0081 12.5913C14.399 12.9822 14.399 13.6159 14.0081 14.0068C13.6172 14.3977 12.9835 14.3977 12.5926 14.0068L8.00061 9.41487L3.40864 14.0068C3.01775 14.3977 2.384 14.3977 1.99312 14.0068C1.60223 13.6159 1.60223 12.9822 1.99312 12.5913L6.58443 8L1.99312 3.40868C1.60223 3.0178 1.60223 2.38405 1.99312 1.99316C2.384 1.60228 3.01775 1.60228 3.40864 1.99316L8.00061 6.58513Z" fill="#545969"/>
</svg>
