<svg width="12" height="12" viewBox="0 0 12 12" fill="none" xmlns="http://www.w3.org/2000/svg">
<path fill-rule="evenodd" clip-rule="evenodd" d="M6 12C2.68629 12 0 9.31371 0 6C0 2.68629 2.68629 0 6 0C9.31371 0 12 2.68629 12 6C12 9.31371 9.31371 12 6 12ZM7.06066 6L8.78033 7.71967C9.07322 8.01256 9.07322 8.48744 8.78033 8.78033C8.48744 9.07322 8.01256 9.07322 7.71967 8.78033L6 7.06066L4.28033 8.78033C3.98744 9.07322 3.51256 9.07322 3.21967 8.78033C2.92678 8.48744 2.92678 8.01256 3.21967 7.71967L4.93934 6L3.21967 4.28033C2.92678 3.98744 2.92678 3.51256 3.21967 3.21967C3.51256 2.92678 3.98744 2.92678 4.28033 3.21967L6 4.93934L7.71967 3.21967C8.01256 2.92678 8.48744 2.92678 8.78033 3.21967C9.07322 3.51256 9.07322 3.98744 8.78033 4.28033L7.06066 6Z" fill="#545969"/>
</svg>
