<svg width="20" height="20" viewBox="0 0 20 20" fill="none" xmlns="http://www.w3.org/2000/svg">
<path d="M9.9987 12.9792C9.88759 12.9792 9.78342 12.9617 9.6862 12.9267C9.58898 12.8922 9.4987 12.8333 9.41536 12.75L6.41536 9.74999C6.26259 9.59722 6.1862 9.40277 6.1862 9.16666C6.1862 8.93055 6.26259 8.73611 6.41536 8.58333C6.56814 8.43055 6.76592 8.35055 7.0087 8.34333C7.25203 8.33666 7.45009 8.40972 7.60286 8.56249L9.16536 10.125V4.16666C9.16536 3.93055 9.24536 3.7325 9.40536 3.5725C9.56481 3.41305 9.76259 3.33333 9.9987 3.33333C10.2348 3.33333 10.4329 3.41305 10.5929 3.5725C10.7523 3.7325 10.832 3.93055 10.832 4.16666V10.125L12.3945 8.56249C12.5473 8.40972 12.7454 8.33666 12.9887 8.34333C13.2315 8.35055 13.4293 8.43055 13.582 8.58333C13.7348 8.73611 13.8112 8.93055 13.8112 9.16666C13.8112 9.40277 13.7348 9.59722 13.582 9.74999L10.582 12.75C10.4987 12.8333 10.4084 12.8922 10.3112 12.9267C10.214 12.9617 10.1098 12.9792 9.9987 12.9792ZM4.9987 16.6667C4.54036 16.6667 4.14814 16.5036 3.82203 16.1775C3.49536 15.8508 3.33203 15.4583 3.33203 15V13.3333C3.33203 13.0972 3.41175 12.8992 3.5712 12.7392C3.7312 12.5797 3.92925 12.5 4.16536 12.5C4.40148 12.5 4.59953 12.5797 4.75953 12.7392C4.91898 12.8992 4.9987 13.0972 4.9987 13.3333V15H14.9987V13.3333C14.9987 13.0972 15.0787 12.8992 15.2387 12.7392C15.3981 12.5797 15.5959 12.5 15.832 12.5C16.0681 12.5 16.2659 12.5797 16.4254 12.7392C16.5854 12.8992 16.6654 13.0972 16.6654 13.3333V15C16.6654 15.4583 16.5023 15.8508 16.1762 16.1775C15.8495 16.5036 15.457 16.6667 14.9987 16.6667H4.9987Z" fill="#545969"/>
</svg>
