<svg width="24" height="24" viewBox="0 0 24 24" fill="none" xmlns="http://www.w3.org/2000/svg">
<g id="icons/down_arrow">
<path id="Vector" d="M6.51328 13.5124C6.71328 13.3124 6.95495 13.2164 7.23828 13.2244C7.52162 13.2331 7.76328 13.3374 7.96328 13.5374L10.7883 16.3624L10.7883 5.2124C10.7883 4.92907 10.8843 4.6914 11.0763 4.4994C11.2676 4.30807 11.5049 4.2124 11.7883 4.2124C12.0716 4.2124 12.3093 4.30807 12.5013 4.4994C12.6926 4.6914 12.7883 4.92907 12.7883 5.2124L12.7883 16.3624L15.6383 13.5124C15.8383 13.3124 16.0759 13.2124 16.3513 13.2124C16.6259 13.2124 16.8633 13.3124 17.0633 13.5124C17.2633 13.7124 17.3633 13.9501 17.3633 14.2254C17.3633 14.5001 17.2633 14.7374 17.0633 14.9374L12.4883 19.5124C12.3883 19.6124 12.2799 19.6834 12.1633 19.7254C12.0466 19.7667 11.9216 19.7874 11.7883 19.7874C11.6549 19.7874 11.5299 19.7667 11.4133 19.7254C11.2966 19.6834 11.1883 19.6124 11.0883 19.5124L6.48828 14.9124C6.30495 14.7291 6.21328 14.5001 6.21328 14.2254C6.21328 13.9501 6.31328 13.7124 6.51328 13.5124Z" fill="#545969"/>
</g>
</svg>
