<svg width="16" height="16" viewBox="0 0 16 16" fill="none" xmlns="http://www.w3.org/2000/svg">
<g id="icons/edit">
<path id="Vector" d="M3.33333 15.8C2.96667 15.8 2.65267 15.6693 2.39133 15.408C2.13044 15.1471 2 14.8333 2 14.4667V5.13334C2 4.76667 2.13044 4.45267 2.39133 4.19134C2.65267 3.93045 2.96667 3.8 3.33333 3.8H9.28333L7.95 5.13334H3.33333V14.4667H12.6667V9.83334L14 8.5V14.4667C14 14.8333 13.8696 15.1471 13.6087 15.408C13.3473 15.6693 13.0333 15.8 12.6667 15.8H3.33333ZM10.7833 4.18334L11.7333 5.11667L7.33333 9.51667V10.4667H8.26667L12.6833 6.05L13.6333 6.98334L9.21667 11.4C9.09444 11.5222 8.95289 11.6196 8.792 11.692C8.63067 11.764 8.46111 11.8 8.28333 11.8H6.66667C6.47778 11.8 6.31956 11.7362 6.192 11.6087C6.064 11.4807 6 11.3222 6 11.1333V9.51667C6 9.33889 6.03333 9.16934 6.1 9.008C6.16667 8.84711 6.26111 8.70556 6.38333 8.58334L10.7833 4.18334ZM13.6333 6.98334L10.7833 4.18334L12.45 2.51667C12.7167 2.25 13.0362 2.11667 13.4087 2.11667C13.7807 2.11667 14.0944 2.25 14.35 2.51667L15.2833 3.46667C15.5389 3.72222 15.6667 4.03334 15.6667 4.4C15.6667 4.76667 15.5389 5.07778 15.2833 5.33334L13.6333 6.98334Z" fill="#404452"/>
</g>
</svg>
