<svg width="16" height="16" viewBox="0 0 16 16" fill="none" xmlns="http://www.w3.org/2000/svg">
<path d="M8.00033 4.33333C9.22615 4.32926 10.4282 4.67119 11.4684 5.31982C12.5086 5.96845 13.3446 6.89744 13.8803 8C12.7803 10.2467 10.5337 11.6667 8.00033 11.6667C5.46699 11.6667 3.22033 10.2467 2.12033 8C2.65607 6.89744 3.49208 5.96845 4.53224 5.31982C5.57241 4.67119 6.7745 4.32926 8.00033 4.33333ZM8.00033 3C4.66699 3 1.82033 5.07333 0.666992 8C1.82033 10.9267 4.66699 13 8.00033 13C11.3337 13 14.1803 10.9267 15.3337 8C14.1803 5.07333 11.3337 3 8.00033 3ZM8.00033 6.33333C8.44235 6.33333 8.86628 6.50893 9.17884 6.82149C9.4914 7.13405 9.66699 7.55797 9.66699 8C9.66699 8.44203 9.4914 8.86595 9.17884 9.17851C8.86628 9.49107 8.44235 9.66667 8.00033 9.66667C7.5583 9.66667 7.13437 9.49107 6.82181 9.17851C6.50925 8.86595 6.33366 8.44203 6.33366 8C6.33366 7.55797 6.50925 7.13405 6.82181 6.82149C7.13437 6.50893 7.5583 6.33333 8.00033 6.33333ZM8.00033 5C6.34699 5 5.00033 6.34667 5.00033 8C5.00033 9.65333 6.34699 11 8.00033 11C9.65366 11 11.0003 9.65333 11.0003 8C11.0003 6.34667 9.65366 5 8.00033 5Z" fill="#545969"/>
</svg>
