<svg width="21" height="20" viewBox="0 0 21 20" fill="none" xmlns="http://www.w3.org/2000/svg">
<g id="Logo/google" clip-path="url(#clip0_373_18830)">
<path id="Vector" d="M20.2614 10.1871C20.2614 9.3677 20.1949 8.76977 20.051 8.14969H10.6943V11.848H16.1865C16.0758 12.7671 15.4778 14.1512 14.1491 15.0813L14.1304 15.2051L17.0888 17.4969L17.2938 17.5174C19.1762 15.7789 20.2614 13.2211 20.2614 10.1871Z" fill="#4285F4"/>
<path id="Vector_2" d="M10.6937 19.9313C13.3844 19.9313 15.6432 19.0454 17.2932 17.5174L14.1484 15.0813C13.3069 15.6682 12.1774 16.0779 10.6937 16.0779C8.05834 16.0779 5.82163 14.3395 5.0243 11.9366L4.90743 11.9466L1.83124 14.3273L1.79102 14.4391C3.42979 17.6945 6.79598 19.9313 10.6937 19.9313Z" fill="#34A853"/>
<path id="Vector_3" d="M5.02478 11.9366C4.81439 11.3166 4.69264 10.6521 4.69264 9.96565C4.69264 9.27908 4.81439 8.61473 5.01371 7.99466L5.00813 7.8626L1.8934 5.44366L1.79149 5.49214C1.11607 6.84305 0.728516 8.36008 0.728516 9.96565C0.728516 11.5712 1.11607 13.0882 1.79149 14.4391L5.02478 11.9366Z" fill="#FBBC05"/>
<path id="Vector_4" d="M10.6937 3.85336C12.565 3.85336 13.8273 4.66168 14.547 5.33718L17.3596 2.59107C15.6322 0.985496 13.3844 0 10.6937 0C6.79598 0 3.42979 2.23672 1.79102 5.49214L5.01323 7.99466C5.82163 5.59183 8.05834 3.85336 10.6937 3.85336Z" fill="#EB4335"/>
</g>
<defs>
<clipPath id="clip0_373_18830">
<rect width="19.542" height="20" fill="white" transform="translate(0.728516)"/>
</clipPath>
</defs>
</svg>
