<svg width="25" height="24" viewBox="0 0 25 24" fill="none" xmlns="http://www.w3.org/2000/svg">
<g id="icons/invoice">
<path id="Glyph" fill-rule="evenodd" clip-rule="evenodd" d="M23 3V24L19.25 21L15.875 24L12.5 21L9.125 24L5.75 21L2 24V3C2 1.34315 3.34315 0 5 0H20C21.6569 0 23 1.34315 23 3ZM6.5 9C5.67157 9 5 9.67157 5 10.5C5 11.3284 5.67157 12 6.5 12H18.5C19.3284 12 20 11.3284 20 10.5C20 9.67157 19.3284 9 18.5 9H6.5ZM11 13.5C10.1716 13.5 9.5 14.1716 9.5 15C9.5 15.8284 10.1716 16.5 11 16.5H18.5C19.3284 16.5 20 15.8284 20 15C20 14.1716 19.3284 13.5 18.5 13.5H11ZM6.5 4.5C5.67157 4.5 5 5.17157 5 6C5 6.82843 5.67157 7.5 6.5 7.5H18.5C19.3284 7.5 20 6.82843 20 6C20 5.17157 19.3284 4.5 18.5 4.5H6.5Z" fill="#545969"/>
</g>
</svg>
