<svg width="20" height="20" viewBox="0 0 20 20" fill="none" xmlns="http://www.w3.org/2000/svg">
<path d="M9.95866 15C10.2503 15 10.497 14.8992 10.6987 14.6975C10.8998 14.4964 11.0003 14.25 11.0003 13.9583C11.0003 13.6667 10.8998 13.4203 10.6987 13.2192C10.497 13.0175 10.2503 12.9167 9.95866 12.9167C9.66699 12.9167 9.42033 13.0175 9.21866 13.2192C9.01755 13.4203 8.91699 13.6667 8.91699 13.9583C8.91699 14.25 9.01755 14.4964 9.21866 14.6975C9.42033 14.8992 9.66699 15 9.95866 15ZM10.0837 6.41667C10.4725 6.41667 10.785 6.52417 11.0212 6.73917C11.2573 6.95472 11.3753 7.23611 11.3753 7.58334C11.3753 7.81945 11.2956 8.05889 11.1362 8.30167C10.9762 8.545 10.7503 8.79861 10.4587 9.0625C10.042 9.42361 9.73644 9.77083 9.54199 10.1042C9.34755 10.4375 9.25033 10.7708 9.25033 11.1042C9.25033 11.2986 9.32338 11.4617 9.46949 11.5933C9.61505 11.7256 9.78505 11.7917 9.97949 11.7917C10.1739 11.7917 10.3475 11.7222 10.5003 11.5833C10.6531 11.4444 10.7503 11.2708 10.792 11.0625C10.8337 10.8264 10.9275 10.6078 11.0737 10.4067C11.2192 10.205 11.4587 9.94445 11.792 9.625C12.2225 9.22222 12.5248 8.85417 12.6987 8.52084C12.872 8.1875 12.9587 7.81945 12.9587 7.41667C12.9587 6.70833 12.6914 6.12833 12.157 5.67667C11.622 5.22556 10.9309 5 10.0837 5C9.50033 5 8.9831 5.11111 8.53199 5.33333C8.08033 5.55556 7.72949 5.89583 7.47949 6.35417C7.38227 6.53472 7.34755 6.71167 7.37533 6.885C7.4031 7.05889 7.50033 7.20139 7.66699 7.3125C7.84755 7.42361 8.0456 7.45833 8.26116 7.41667C8.47616 7.375 8.6531 7.25695 8.79199 7.0625C8.94477 6.85417 9.12894 6.69445 9.34449 6.58333C9.55949 6.47222 9.80588 6.41667 10.0837 6.41667ZM10.0003 18.3333C8.86144 18.3333 7.78505 18.1144 6.77116 17.6767C5.75727 17.2394 4.87199 16.6458 4.11533 15.8958C3.3581 15.1458 2.76088 14.2639 2.32366 13.25C1.88588 12.2361 1.66699 11.1528 1.66699 10C1.66699 8.84722 1.88588 7.76389 2.32366 6.75C2.76088 5.73611 3.3581 4.85417 4.11533 4.10417C4.87199 3.35417 5.75727 2.76028 6.77116 2.3225C7.78505 1.88528 8.86144 1.66667 10.0003 1.66667C11.167 1.66667 12.2573 1.88528 13.2712 2.3225C14.285 2.76028 15.167 3.35417 15.917 4.10417C16.667 4.85417 17.2573 5.73611 17.6878 6.75C18.1184 7.76389 18.3337 8.84722 18.3337 10C18.3337 11.1528 18.1184 12.2361 17.6878 13.25C17.2573 14.2639 16.667 15.1458 15.917 15.8958C15.167 16.6458 14.285 17.2394 13.2712 17.6767C12.2573 18.1144 11.167 18.3333 10.0003 18.3333Z" fill="#545969"/>
</svg>
