<svg width="12" height="12" viewBox="0 0 12 12" fill="none" xmlns="http://www.w3.org/2000/svg">
<path d="M6.00039 1.81262L8.69388 4.50611C8.98704 4.79927 9.46235 4.79927 9.75552 4.50611C10.0487 4.21294 10.0487 3.73763 9.75552 3.44447L6.53072 0.21967C6.23783 -0.0732233 5.76295 -0.0732233 5.47006 0.21967L2.24526 3.44447C1.9521 3.73763 1.9521 4.21294 2.24526 4.50611C2.53843 4.79927 3.01374 4.79927 3.30691 4.50611L6.00039 1.81262Z" fill="#4F566B"/>
<path d="M9.75552 7.49389C9.46235 7.20073 8.98704 7.20073 8.69388 7.49389L6.00039 10.1874L3.30691 7.49389C3.01374 7.20073 2.53843 7.20073 2.24526 7.49389C1.9521 7.78706 1.9521 8.26237 2.24526 8.55553L5.47006 11.7803C5.76295 12.0732 6.23783 12.0732 6.53072 11.7803L9.75552 8.55553C10.0487 8.26237 10.0487 7.78706 9.75552 7.49389Z" fill="#4F566B"/>
</svg>
