<svg width="16" height="16" viewBox="0 0 16 16" fill="none" xmlns="http://www.w3.org/2000/svg">
<g id="icons/settings">
<path id="Vector" d="M15 9.386C15 9.49186 14.9664 9.59498 14.904 9.68052C14.8417 9.76607 14.7538 9.82961 14.653 9.862L12.944 10.412C12.831 10.643 12.704 10.864 12.561 11.075L12.939 12.831C12.9611 12.9345 12.9498 13.0424 12.9066 13.1391C12.8635 13.2358 12.7908 13.3163 12.699 13.369L10.3 14.755C10.2082 14.8079 10.102 14.8303 9.99673 14.819C9.89141 14.8077 9.79241 14.7632 9.714 14.692L8.384 13.487C8.12897 13.5045 7.87303 13.5045 7.618 13.487L6.286 14.692C6.20759 14.7632 6.10859 14.8077 6.00327 14.819C5.89795 14.8303 5.79176 14.8079 5.7 14.755L3.3 13.369C3.20837 13.3161 3.13587 13.2356 3.09293 13.1389C3.04998 13.0422 3.0388 12.9344 3.061 12.831L3.439 11.075C3.297 10.865 3.169 10.643 3.056 10.413L1.347 9.862C1.24622 9.82961 1.15832 9.76607 1.09596 9.68052C1.0336 9.59498 1 9.49186 1 9.386L1 6.614C1 6.50814 1.0336 6.40502 1.09596 6.31948C1.15832 6.23394 1.24622 6.17039 1.347 6.138L3.055 5.589C3.16766 5.35862 3.2963 5.13641 3.44 4.924L3.061 3.169C3.03889 3.06547 3.05022 2.95759 3.09335 2.8609C3.13649 2.76422 3.20919 2.68372 3.301 2.631L5.7 1.245C5.79176 1.19208 5.89795 1.16966 6.00327 1.18098C6.10859 1.1923 6.20759 1.23678 6.286 1.308L7.618 2.513C7.87237 2.49555 8.12763 2.49555 8.382 2.513L9.714 1.308C9.79241 1.23678 9.89141 1.1923 9.99673 1.18098C10.102 1.16966 10.2082 1.19208 10.3 1.245L12.7 2.631C12.7916 2.68386 12.8641 2.76443 12.9071 2.8611C12.95 2.95777 12.9612 3.06557 12.939 3.169L12.56 4.924C12.703 5.136 12.832 5.358 12.945 5.589L14.653 6.139C14.7535 6.17129 14.8411 6.23453 14.9034 6.31967C14.9658 6.40481 14.9996 6.50749 15 6.613L15 9.385L15 9.386ZM14 9.02L14 6.98L12.233 6.412L12.046 6.029C11.9539 5.84072 11.849 5.65896 11.732 5.485L11.492 5.131L11.884 3.315L10.116 2.295L8.738 3.54L8.314 3.51C8.10491 3.49563 7.89509 3.49563 7.686 3.51L7.262 3.54L5.884 2.293L4.116 3.314L4.507 5.13L4.268 5.484C4.15105 5.65796 4.04614 5.83972 3.954 6.028L3.767 6.411L2 6.98L2 9.022L3.768 9.592L3.954 9.974C4.04592 10.1621 4.15084 10.3435 4.268 10.517L4.507 10.87L4.116 12.687L5.884 13.707L7.262 12.461L7.686 12.491C7.89542 12.5054 8.10558 12.5054 8.315 12.491L8.739 12.461L10.116 13.708L11.884 12.687L11.494 10.87L11.732 10.517C11.8492 10.3435 11.9541 10.1621 12.046 9.974L12.232 9.592L14 9.021L14 9.02ZM11 8C11 8.79565 10.6839 9.55871 10.1213 10.1213C9.55871 10.6839 8.79565 11 8 11C7.20435 11 6.44129 10.6839 5.87868 10.1213C5.31607 9.55871 5 8.79565 5 8C5 7.20435 5.31607 6.44129 5.87868 5.87868C6.44129 5.31607 7.20435 5 8 5C8.79565 5 9.55871 5.31607 10.1213 5.87868C10.6839 6.44129 11 7.20435 11 8ZM10 8C10 7.46957 9.78929 6.96086 9.41421 6.58579C9.03914 6.21071 8.53043 6 8 6C7.46957 6 6.96086 6.21071 6.58579 6.58579C6.21071 6.96086 6 7.46957 6 8C6 8.53043 6.21071 9.03914 6.58579 9.41421C6.96086 9.78929 7.46957 10 8 10C8.53043 10 9.03914 9.78929 9.41421 9.41421C9.78929 9.03914 10 8.53043 10 8Z" fill="#545969"/>
</g>
</svg>
