<svg width="16" height="16" viewBox="0 0 16 16" fill="none" xmlns="http://www.w3.org/2000/svg">
<path fill-rule="evenodd" clip-rule="evenodd" d="M16 8C16 12.4183 12.4183 16 8 16C3.58172 16 0 12.4183 0 8C0 3.58172 3.58172 0 8 0C12.4183 0 16 3.58172 16 8ZM12.4975 4.99521C12.107 4.60468 11.4738 4.60468 11.0833 4.99521L7 9.08579L5.20711 7.29289C4.81658 6.90237 4.18342 6.90237 3.79289 7.29289C3.40237 7.68342 3.40237 8.31658 3.79289 8.70711L6.29289 11.2071C6.68342 11.5976 7.31658 11.5976 7.70711 11.2071L12.4975 6.40942C12.888 6.0189 12.888 5.38573 12.4975 4.99521Z" fill="#006908"/>
</svg>
